<svg width="16" height="16" viewBox="0 0 16 16" fill="none" xmlns="http://www.w3.org/2000/svg">
<path fill-rule="evenodd" clip-rule="evenodd" d="M14.4717 7.52819C14.5356 7.59211 14.5839 7.66578 14.6164 7.74441C14.649 7.82301 14.667 7.9092 14.667 7.9996C14.667 8.08999 14.649 8.17618 14.6164 8.25479C14.5839 8.33342 14.5356 8.40708 14.4717 8.471L10.7005 12.2422C10.4401 12.5026 10.018 12.5026 9.75768 12.2422C9.49734 11.9819 9.49734 11.5598 9.75768 11.2994L12.3908 8.66626L2.00033 8.66626C1.63214 8.66626 1.33366 8.36779 1.33366 7.9996C1.33366 7.63141 1.63214 7.33293 2.00033 7.33293L12.3909 7.33293L9.75769 4.69976C9.49734 4.43942 9.49734 4.01731 9.75769 3.75696C10.018 3.49661 10.4401 3.49661 10.7005 3.75696L14.4717 7.52819Z" fill="#F53945"/>
</svg>
