<svg width="138" height="45" viewBox="0 0 138 45" fill="none" xmlns="http://www.w3.org/2000/svg">
<g clip-path="url(#clip0)">
<path d="M138 38.9104C138 42.2583 135.275 45 131.89 45H6.11041C2.72455 45 0 42.2583 0 38.9104V6.08963C0 2.71529 2.72455 0 6.11041 0H131.916C135.275 0 138.026 2.71529 138.026 6.08963V38.9104H138Z" fill="black"/>
<path d="M35.9748 29.7372C35.2342 31.3453 34.8903 32.0834 33.9645 33.507C32.6419 35.5105 30.7902 37.9885 28.5154 37.9885C26.4786 38.0149 25.9495 36.6704 23.1985 36.6704C20.4475 36.6968 19.8656 37.9885 17.8288 37.9885C15.5274 37.9622 13.7552 35.7478 12.459 33.7442C8.78218 28.1819 8.41185 21.6441 10.6603 18.1643C12.2738 15.6862 14.8132 14.2627 17.1939 14.2627C19.6275 14.2627 21.1617 15.5808 23.1721 15.5808C25.1295 15.5808 26.3198 14.2627 29.1238 14.2627C31.2399 14.2627 33.4883 15.4226 35.1019 17.3998C29.838 20.2732 30.6844 27.7337 35.9748 29.7372Z" fill="white"/>
<path d="M26.9815 12.0215C28.0131 10.7034 28.7803 8.88439 28.4893 6.98633C26.8228 7.09178 24.8654 8.14626 23.7279 9.54345C22.6963 10.7825 21.8498 12.6542 22.1673 14.4468C23.9924 14.4995 25.8705 13.4187 26.9815 12.0215Z" fill="white"/>
<path d="M47.1634 18.085L41.8994 33.5068H44.3065L45.8672 28.7616H50.946L52.5596 33.5068H55.0461L49.7557 18.085H47.1634ZM48.4066 20.6157C48.5918 21.3011 48.7769 22.0129 49.015 22.8038L50.4434 26.8899H46.4227L47.8247 22.7774C48.0363 22.092 48.2214 21.3802 48.4066 20.6157Z" fill="white"/>
<path d="M61.8707 22.0918C60.2836 22.0918 58.9875 22.6981 58.141 23.8844L58.0352 22.3554H55.8926V22.54C55.9455 23.489 55.9719 24.5435 55.9719 26.0461V37.9354H58.3262V32.3994C59.0404 33.2693 60.2043 33.7702 61.5269 33.7702C62.9024 33.7702 64.1456 33.2429 65.0714 32.2675C66.103 31.1867 66.6321 29.6313 66.6321 27.786C66.6321 26.1515 66.1559 24.728 65.283 23.6999C64.4366 22.6454 63.2198 22.0918 61.8707 22.0918ZM61.2888 24.0162C63.3785 24.0162 64.3043 25.9407 64.3043 27.8651C64.3043 30.3168 63.114 31.8457 61.183 31.8457C59.8604 31.8457 58.7494 30.9494 58.432 29.6841C58.3791 29.4732 58.3526 29.2359 58.3526 28.9196V27.0479C58.3526 26.8897 58.3791 26.6788 58.432 26.4679C58.432 26.4152 58.4584 26.3361 58.4584 26.2834C58.8023 24.9389 59.9662 24.0162 61.2888 24.0162Z" fill="white"/>
<path d="M73.9331 22.0918C72.346 22.0918 71.0499 22.6981 70.2034 23.8844L70.0976 22.3554H67.9814V22.54C68.0343 23.489 68.0608 24.5435 68.0608 26.0461V37.9354H70.415V32.3994C71.1292 33.2693 72.2931 33.7702 73.6157 33.7702C74.9912 33.7702 76.2345 33.2429 77.1603 32.2675C78.1919 31.1867 78.721 29.6313 78.721 27.786C78.721 26.1515 78.2448 24.728 77.3719 23.6999C76.499 22.6454 75.2822 22.0918 73.9331 22.0918ZM73.3512 24.0162C75.4409 24.0162 76.3667 25.9407 76.3667 27.8651C76.3667 30.3168 75.1764 31.8457 73.2454 31.8457C71.9492 31.8457 70.8118 30.9494 70.4944 29.6841C70.4415 29.4732 70.415 29.2359 70.415 28.9196V27.0479C70.415 26.8897 70.4415 26.6788 70.4944 26.4679C70.4944 26.4152 70.5208 26.3361 70.5208 26.2834C70.8647 24.9389 72.0286 24.0162 73.3512 24.0162Z" fill="white"/>
<path d="M89.0365 24.6227C86.841 23.7791 86.1533 23.1201 86.1533 21.881C86.1533 20.8529 86.9733 19.7984 88.8249 19.7984C90.3327 19.7984 91.3114 20.3257 91.5759 20.4839L91.7875 20.6157L92.4488 18.6649L92.3166 18.5858C91.9198 18.3485 90.8088 17.8213 88.9043 17.8213C85.9152 17.8213 83.8255 19.5875 83.8255 22.0919C83.8255 24.1218 85.1216 25.5454 87.9255 26.5471C89.9094 27.2853 90.6501 28.0498 90.6501 29.3415C90.6501 30.8178 89.5127 31.7141 87.661 31.7141C86.4707 31.7141 85.2274 31.3714 84.2752 30.765L84.0636 30.6332L83.4287 32.6368L83.5345 32.7158C84.4074 33.2958 86.0739 33.7176 87.5023 33.7176C91.523 33.7176 92.9514 31.2659 92.9514 29.1833C92.9779 27.048 91.8404 25.7299 89.0365 24.6227Z" fill="white"/>
<path d="M97.1837 19.667L94.8824 20.3788V22.3296H93.1895V24.2013H94.8824V29.9218C94.8824 31.2926 95.1469 32.268 95.7024 32.8744C96.2314 33.4543 97.025 33.7707 97.9773 33.7707C98.8502 33.7707 99.485 33.5861 99.776 33.4807L99.9083 33.428L99.8025 31.5563L99.5908 31.6354C99.2999 31.7144 98.9824 31.7672 98.5063 31.7672C97.6069 31.7672 97.2102 31.1872 97.2102 29.8427V24.2013H100.041V22.3296H97.2102V19.667H97.1837Z" fill="white"/>
<path d="M105.834 22.0918C102.554 22.0918 100.279 24.5171 100.279 28.0233C100.279 31.3976 102.501 33.7702 105.676 33.7702H105.702C108.374 33.7702 111.257 31.8985 111.257 27.8124C111.257 26.1516 110.754 24.728 109.776 23.6735C108.744 22.6454 107.395 22.0918 105.834 22.0918ZM105.755 23.9108C107.871 23.9108 108.823 25.967 108.823 27.8651C108.823 30.2113 107.527 31.8985 105.702 31.8985H105.676C103.903 31.8985 102.607 30.2377 102.607 27.9178C102.634 25.9407 103.586 23.9108 105.755 23.9108Z" fill="white"/>
<path d="M118.399 22.1972L118.266 22.1709C118.055 22.1182 117.896 22.0918 117.684 22.0918C116.468 22.0918 115.357 22.8036 114.748 23.9635L114.669 22.3291H112.579L112.606 22.5136C112.658 23.4363 112.685 24.4644 112.685 25.8616L112.658 33.4802H115.013V27.5224C115.013 27.206 115.039 26.8897 115.066 26.6261C115.33 25.2025 116.309 24.2798 117.526 24.2798C117.764 24.2798 117.949 24.3062 118.16 24.3062L118.399 24.3326V22.1972Z" fill="white"/>
<path d="M123.662 22.0654C120.541 22.0654 118.372 24.5435 118.372 28.1023C118.372 31.5294 120.541 33.7438 123.901 33.7438C125.673 33.7438 126.89 33.3484 127.604 33.032L127.736 32.9793L127.286 31.2394L127.101 31.3185C126.466 31.5821 125.62 31.8457 124.165 31.8457C123.16 31.8457 120.806 31.503 120.647 28.4714L128.212 28.4978L128.239 28.3396C128.292 28.1023 128.318 27.786 128.318 27.3642C128.318 24.9125 127.101 22.0654 123.662 22.0654ZM123.504 23.8317C124.218 23.8317 124.8 24.0426 125.223 24.4907C125.884 25.1762 126.017 26.1779 126.017 26.6524H120.673C120.911 25.308 121.758 23.8317 123.504 23.8317Z" fill="white"/>
<path d="M41.8994 7.54001C42.5607 7.46092 43.3014 7.38184 44.1478 7.38184C45.6556 7.38184 46.7401 7.69818 47.4543 8.27815C48.195 8.88447 48.6182 9.72806 48.6182 10.9143C48.6182 12.1006 48.195 13.076 47.4543 13.7614C46.6872 14.4469 45.4175 14.8159 43.8569 14.8159C43.0898 14.8159 42.4814 14.7896 41.9259 14.7368V7.54001H41.8994ZM42.9839 14.0251C43.2485 14.0778 43.6452 14.0778 44.042 14.0778C46.2904 14.0778 47.5072 12.9442 47.5072 10.9934C47.5072 9.25354 46.4227 8.1727 44.2007 8.1727C43.6452 8.1727 43.2485 8.22542 42.9575 8.27815V14.0251H42.9839Z" fill="white"/>
<path d="M52.3742 14.869C50.8136 14.869 49.5703 13.8409 49.5703 12.1801C49.5703 10.4139 50.8665 9.38574 52.48 9.38574C54.1465 9.38574 55.2839 10.4666 55.2839 12.0747C55.2839 14.0255 53.7762 14.869 52.3742 14.869ZM52.4007 14.1573C53.4059 14.1573 54.173 13.3137 54.173 12.101C54.173 11.2047 53.6704 10.0975 52.4271 10.0975C51.1839 10.0975 50.6284 11.1256 50.6284 12.1274C50.6548 13.2873 51.369 14.1573 52.4007 14.1573Z" fill="white"/>
<path d="M56.9773 9.5166L57.7708 12.1792C57.9295 12.7591 58.0883 13.3127 58.1941 13.8663H58.2205C58.3528 13.3391 58.5379 12.7855 58.7496 12.2055L59.7018 9.54296H60.6012L61.5006 12.1528C61.7122 12.7591 61.8973 13.3391 62.0296 13.8663H62.0561C62.1619 13.3391 62.3206 12.7855 62.5057 12.1528L63.3257 9.5166H64.3838L62.5057 14.7626H61.527L60.6276 12.2582C60.416 11.6519 60.2573 11.151 60.0986 10.5184H60.0722C59.9399 11.151 59.7547 11.7046 59.5431 12.2582L58.5908 14.7363H57.6121L55.8398 9.49023H56.9773V9.5166Z" fill="white"/>
<path d="M65.4416 10.9138C65.4416 10.3602 65.4416 9.93836 65.3887 9.49021H66.3409L66.3938 10.3338H66.4203C66.7113 9.85928 67.399 9.3584 68.3513 9.3584C69.1713 9.3584 70.4146 9.78019 70.4146 11.5992V14.7363H69.3565V11.731C69.3565 10.8874 69.0126 10.1756 68.0074 10.1756C67.3197 10.1756 66.7642 10.6238 66.579 11.151C66.5261 11.2828 66.4997 11.441 66.4997 11.5992V14.7626H65.4416V10.9138Z" fill="white"/>
<path d="M72.1338 7.06543H73.1919V14.7631H72.1338V7.06543Z" fill="white"/>
<path d="M77.3449 14.869C75.7843 14.869 74.541 13.8409 74.541 12.1801C74.541 10.4139 75.8372 9.38574 77.4507 9.38574C79.1172 9.38574 80.2547 10.4666 80.2547 12.0747C80.2547 14.0255 78.7469 14.869 77.3449 14.869ZM77.3714 14.1573C78.3766 14.1573 79.1437 13.3137 79.1437 12.101C79.1437 11.2047 78.6411 10.0975 77.3978 10.0975C76.1546 10.0975 75.5991 11.1256 75.5991 12.1274C75.6255 13.2873 76.3398 14.1573 77.3714 14.1573Z" fill="white"/>
<path d="M85.7032 13.4982C85.7032 13.9464 85.7297 14.3945 85.7826 14.7636H84.8303L84.7245 14.1046H84.698C84.3806 14.5264 83.7458 14.8954 82.8993 14.8954C81.709 14.8954 81.1006 14.1573 81.1006 13.3928C81.1006 12.1274 82.3438 11.442 84.6187 11.442V11.3365C84.6187 10.9148 84.4864 10.1239 83.2961 10.1239C82.7406 10.1239 82.1851 10.2557 81.7619 10.5193L81.5238 9.88663C82 9.62301 82.7142 9.43848 83.4548 9.43848C85.2535 9.43848 85.6768 10.5193 85.6768 11.5738V13.4982H85.7032ZM84.6716 12.0747C83.5077 12.0483 82.1851 12.2329 82.1851 13.261C82.1851 13.8937 82.6348 14.1836 83.1638 14.1836C83.9309 14.1836 84.4335 13.7619 84.5922 13.3137C84.6187 13.2082 84.6451 13.1028 84.6451 12.9974V12.0747H84.6716Z" fill="white"/>
<path d="M92.4492 7.06543V13.3923C92.4492 13.8668 92.4492 14.3941 92.5021 14.7368H91.5498L91.4969 13.8141H91.4705C91.1531 14.3941 90.4389 14.8422 89.4866 14.8422C88.0846 14.8422 86.9736 13.7614 86.9736 12.1797C86.9736 10.4134 88.1904 9.35893 89.5924 9.35893C90.4918 9.35893 91.1002 9.728 91.3647 10.1498H91.3911V7.06543H92.4492ZM91.3911 11.6524C91.3911 11.5206 91.3911 11.3624 91.3382 11.2306C91.1795 10.6243 90.5976 10.1498 89.804 10.1498C88.693 10.1498 88.0582 11.0197 88.0582 12.1533C88.0582 13.2341 88.6401 14.1041 89.7776 14.1041C90.4918 14.1041 91.1531 13.6823 91.3382 12.9705C91.3647 12.8387 91.3911 12.7069 91.3911 12.5487V11.6524Z" fill="white"/>
<path d="M99.1682 14.869C97.6075 14.869 96.3643 13.8409 96.3643 12.1801C96.3643 10.4139 97.6604 9.38574 99.274 9.38574C100.94 9.38574 102.078 10.4666 102.078 12.0747C102.078 14.0255 100.57 14.869 99.1682 14.869ZM99.1946 14.1573C100.2 14.1573 100.967 13.3137 100.967 12.101C100.967 11.2047 100.464 10.0975 99.2211 10.0975C97.9778 10.0975 97.4223 11.1256 97.4223 12.1274C97.4223 13.2873 98.163 14.1573 99.1946 14.1573Z" fill="white"/>
<path d="M103.401 10.9138C103.401 10.3602 103.401 9.93836 103.348 9.49021H104.3L104.353 10.3338H104.379C104.67 9.85928 105.358 9.3584 106.31 9.3584C107.13 9.3584 108.374 9.78019 108.374 11.5992V14.7363H107.315V11.731C107.315 10.8874 106.972 10.1756 105.966 10.1756C105.279 10.1756 104.723 10.6238 104.538 11.151C104.485 11.2828 104.459 11.441 104.459 11.5992V14.7626H103.401V10.9138Z" fill="white"/>
<path d="M113.955 8.25195V9.51733H115.489V10.2555H113.955V13.0762C113.955 13.7353 114.166 14.1043 114.748 14.1043C115.039 14.1043 115.198 14.078 115.356 14.0516L115.409 14.7897C115.198 14.8425 114.88 14.9216 114.457 14.9216C113.955 14.9216 113.558 14.7634 113.32 14.5261C113.029 14.2361 112.896 13.7616 112.896 13.1553V10.2291H111.997V9.49097H112.896V8.51557L113.955 8.25195Z" fill="white"/>
<path d="M116.679 7.06543H117.737V10.3343H117.763C117.922 10.0707 118.186 9.80708 118.53 9.67527C118.848 9.49074 119.218 9.41165 119.615 9.41165C120.408 9.41165 121.652 9.83344 121.652 11.6524V14.7631H120.594V11.7315C120.594 10.8879 120.25 10.1762 119.245 10.1762C118.557 10.1762 118.028 10.5979 117.816 11.1252C117.763 11.257 117.737 11.3888 117.737 11.5733V14.7368H116.679V7.06543Z" fill="white"/>
<path d="M123.98 12.2846C124.006 13.5763 124.906 14.1036 125.964 14.1036C126.731 14.1036 127.207 13.9718 127.577 13.8399L127.763 14.499C127.392 14.6572 126.731 14.8417 125.805 14.8417C124.006 14.8417 122.922 13.7609 122.922 12.2055C122.922 10.6238 123.98 9.3584 125.673 9.3584C127.577 9.3584 128.08 10.861 128.08 11.8364C128.08 12.021 128.08 12.1791 128.054 12.2846H123.98ZM127.075 11.5992C127.075 10.9928 126.784 10.0438 125.62 10.0438C124.535 10.0438 124.086 10.9401 123.98 11.5992H127.075Z" fill="white"/>
</g>
<defs>
<clipPath id="clip0">
<rect width="138" height="45" fill="white"/>
</clipPath>
</defs>
</svg>
