<svg width="133" height="44" viewBox="0 0 133 44" fill="none" xmlns="http://www.w3.org/2000/svg">
<path d="M124.797 1.81176C127.195 1.81176 128.807 2.26471 129.763 3.18353C130.707 4.10235 131.166 5.69412 131.166 8.03647V35.9894C131.166 38.3318 130.707 39.9106 129.763 40.8165C128.82 41.7353 127.195 42.1753 124.797 42.1753H8.11103C5.72621 42.1753 4.11448 41.7353 3.19724 40.8294C2.28 39.9235 1.83448 38.3447 1.83448 35.9894V8.04941C1.83448 5.35765 2.13586 3.88235 2.83034 3.10588C3.60345 2.22588 5.29379 1.81176 8.12414 1.81176H124.797ZM124.797 0H8.12414C1.1531 0 0 2.38118 0 8.04941V36.0153C0 41.6706 2.38483 44 8.11103 44H124.797C130.537 44 133 41.6576 133 36.0024V8.04941C133 2.38118 130.537 0 124.797 0Z" fill="white"/>
<path d="M65.7535 25.2223C63.3162 25.2223 61.3769 27.0341 61.3769 29.5447C61.3769 31.9517 63.3031 33.867 65.7535 33.867C68.2038 33.867 70.13 32.0552 70.13 29.5447C70.1169 26.9305 68.1907 25.2223 65.7535 25.2223ZM65.7535 32.0552C64.43 32.0552 63.3162 30.9552 63.3162 29.4411C63.3162 27.94 64.43 26.827 65.7535 26.827C67.0769 26.827 68.1907 27.8364 68.1907 29.4411C68.1907 30.9423 67.0638 32.0552 65.7535 32.0552ZM56.2928 25.2223C53.8556 25.2223 51.9162 27.0341 51.9162 29.5447C51.9162 31.9517 53.8425 33.867 56.2928 33.867C58.7431 33.867 60.6693 32.0552 60.6693 29.5447C60.6693 26.9305 58.73 25.2223 56.2928 25.2223ZM56.2928 32.0552C54.9693 32.0552 53.8556 30.9552 53.8556 29.4411C53.8556 27.94 54.9693 26.827 56.2928 26.827C57.6162 26.827 58.73 27.8364 58.73 29.4411C58.73 30.9423 57.6162 32.0552 56.2928 32.0552ZM45.0107 26.5294V28.3411H49.3873C49.2824 29.3505 48.8762 30.1529 48.3652 30.6447C47.7493 31.2529 46.7404 31.9517 45.0107 31.9517C42.2721 31.9517 40.228 29.8423 40.228 27.1376C40.228 24.4329 42.3638 22.3235 45.0107 22.3235C46.439 22.3235 47.5528 22.9317 48.3652 23.6305L49.6887 22.3235C48.5749 21.3141 47.1466 20.5117 45.1156 20.5117C41.4597 20.5117 38.3018 23.527 38.3018 27.1376C38.3018 30.7482 41.4466 33.7635 45.1156 33.7635C47.1466 33.7635 48.5749 33.1552 49.7935 31.8611C51.0121 30.6576 51.4183 28.9494 51.4183 27.6423C51.4183 27.2411 51.4183 26.84 51.3135 26.5423L45.0107 26.5294ZM91.1611 27.94C90.7549 26.9305 89.7328 25.2352 87.5052 25.2352C85.2645 25.2352 83.4431 26.9435 83.4431 29.5576C83.4431 31.9647 85.2776 33.88 87.7149 33.88C89.6411 33.88 90.8597 32.6764 91.279 31.9776L89.8507 30.9682C89.3397 31.667 88.7369 32.1717 87.7149 32.1717C86.6928 32.1717 86.09 31.7705 85.579 30.8647L91.3707 28.4576L91.1611 27.94ZM85.2645 29.3376C85.2645 27.7329 86.588 26.827 87.5052 26.827C88.2128 26.827 88.9335 27.2282 89.13 27.7329L85.2645 29.3376ZM80.4818 33.4529H82.4211V20.9H80.4949V33.4529H80.4818ZM77.4418 26.1282C76.9307 25.6235 76.1183 25.1188 75.1094 25.1188C72.9735 25.1188 70.9425 27.0211 70.9425 29.4411C70.9425 31.8611 72.8687 33.66 75.1094 33.66C76.1314 33.66 76.9438 33.1552 77.35 32.6505H77.4549V33.2588C77.4549 34.8635 76.5376 35.7694 75.1225 35.7694C74.0087 35.7694 73.1962 34.967 72.9866 34.2682L71.3618 34.967C71.8728 36.067 73.0914 37.4776 75.2273 37.4776C77.468 37.4776 79.2893 36.1705 79.2893 33.0647V25.4294H77.4549L77.4418 26.1282ZM75.2011 32.0552C73.8776 32.0552 72.7638 30.9552 72.7638 29.4411C72.7638 27.94 73.8776 26.827 75.2011 26.827C76.5245 26.827 77.5335 27.927 77.5335 29.4411C77.5335 30.9423 76.5245 32.0552 75.2011 32.0552ZM100.006 20.9129H95.4328V33.4658H97.359V28.7423H100.006C102.142 28.7423 104.173 27.2411 104.173 24.8211C104.173 22.4011 102.142 20.9129 100.006 20.9129ZM100.111 26.9305H97.359V22.6082H100.111C101.539 22.6082 102.351 23.8117 102.351 24.7176C102.233 25.8305 101.421 26.9305 100.111 26.9305ZM111.799 25.1188C110.371 25.1188 108.956 25.727 108.445 27.0211L110.174 27.72C110.58 27.0211 111.196 26.8141 111.904 26.8141C112.926 26.8141 113.83 27.4223 113.935 28.4188V28.5223C113.633 28.3152 112.821 28.0176 112.009 28.0176C110.174 28.0176 108.353 29.027 108.353 30.8258C108.353 32.5341 109.873 33.6341 111.498 33.6341C112.821 33.6341 113.424 33.0258 113.935 32.4305H114.04V33.44H115.874V28.6258C115.651 26.4258 113.935 25.1188 111.799 25.1188ZM111.589 32.0552C110.973 32.0552 110.069 31.7576 110.069 30.9552C110.069 29.9458 111.183 29.6482 112.1 29.6482C112.913 29.6482 113.319 29.8552 113.83 30.0494C113.62 31.2529 112.611 32.0552 111.589 32.0552ZM122.269 25.4294L120.133 30.8517H120.028L117.787 25.4294H115.756L119.111 33.0647L117.185 37.2705H119.111L124.3 25.4294H122.269ZM105.182 33.4529H107.108V20.9H105.182V33.4529Z" fill="white"/>
<path d="M40.6474 10.6895H42.0232L44.4343 17.0306H43.1108L42.5867 15.5165H40.097L39.5729 17.0306H38.2363L40.6474 10.6895ZM42.1805 14.4165L41.6039 12.8377L41.3681 12.0612H41.3025L41.0667 12.8377L40.4901 14.4165H42.1805Z" fill="white"/>
<path d="M45.1943 10.6895H46.5964L49.1778 14.9342H49.2433L49.1778 13.7177V10.6895H50.3833V17.0306H49.1123L46.3868 12.54H46.3212L46.3868 13.7565V17.0177H45.1943V10.6895Z" fill="white"/>
<path d="M51.6807 10.6895H53.8558C54.3669 10.6895 54.8255 10.7671 55.2317 10.9224C55.6379 11.0777 55.9786 11.2977 56.2669 11.5695C56.5551 11.8542 56.7779 12.1906 56.922 12.5789C57.0793 12.9671 57.1448 13.3942 57.1448 13.86C57.1448 14.3259 57.0662 14.7659 56.922 15.1542C56.7648 15.5424 56.5551 15.8789 56.2669 16.1506C55.9786 16.4224 55.6379 16.6424 55.2317 16.7977C54.8255 16.953 54.3669 17.0306 53.8558 17.0306H51.6807V10.6895ZM53.7903 15.9047C54.1441 15.9047 54.4586 15.853 54.7207 15.7624C54.9958 15.6589 55.2186 15.5294 55.3889 15.3483C55.5724 15.1671 55.7034 14.96 55.7951 14.7012C55.8869 14.4553 55.9262 14.1706 55.9262 13.86C55.9262 13.5495 55.8869 13.2777 55.7951 13.0189C55.7034 12.773 55.5724 12.553 55.3889 12.3718C55.2055 12.1906 54.9827 12.0612 54.7207 11.9577C54.4455 11.8542 54.1441 11.8153 53.7903 11.8153H52.8862V15.8918H53.7903V15.9047Z" fill="white"/>
<path d="M58.1143 10.6895H60.4598C60.7874 10.6895 61.0756 10.7412 61.3377 10.8447C61.5998 10.9483 61.8225 11.0777 62.0191 11.2589C62.2025 11.44 62.3467 11.6471 62.4515 11.893C62.5563 12.1389 62.6087 12.4106 62.6087 12.6953C62.6087 12.9024 62.5694 13.1095 62.5039 13.2906C62.4384 13.4718 62.3336 13.64 62.2025 13.7953C62.0715 13.9506 61.9274 14.08 61.757 14.1965C61.5867 14.313 61.4163 14.4036 61.2329 14.4683L61.2198 14.533L62.9363 16.9659V17.0306H61.5474L59.8832 14.6495H59.3198V17.0306H58.1143V10.6895ZM60.4467 13.5495C60.7218 13.5495 60.9446 13.4718 61.1281 13.3036C61.2984 13.1353 61.3901 12.9283 61.3901 12.6695C61.3901 12.553 61.377 12.4495 61.3377 12.3459C61.2984 12.2424 61.246 12.1518 61.1674 12.0612C61.0887 11.9836 60.997 11.9059 60.8791 11.8671C60.7612 11.8153 60.6301 11.7895 60.486 11.7895H59.346V13.5495H60.4467Z" fill="white"/>
<path d="M66.7099 17.1732C66.2382 17.1732 65.7927 17.0827 65.3734 16.9144C64.9672 16.7462 64.6134 16.5132 64.312 16.2156C64.0106 15.918 63.7748 15.5685 63.6044 15.1674C63.4341 14.7662 63.3555 14.3262 63.3555 13.8732C63.3555 13.4203 63.4341 12.9803 63.6044 12.5791C63.7748 12.1779 64.0106 11.8285 64.312 11.5309C64.6134 11.2332 64.9672 11.0003 65.3734 10.8321C65.7796 10.6638 66.2251 10.5732 66.7099 10.5732C67.1817 10.5732 67.6272 10.6638 68.0465 10.8321C68.4527 11.0003 68.8065 11.2332 69.1079 11.5309C69.4093 11.8285 69.6451 12.1779 69.8155 12.5791C69.9858 12.9803 70.0644 13.4203 70.0644 13.8732C70.0644 14.3262 69.9858 14.7662 69.8155 15.1674C69.6451 15.5685 69.4093 15.918 69.1079 16.2156C68.8065 16.5132 68.4527 16.7462 68.0465 16.9144C67.6403 17.0956 67.1948 17.1732 66.7099 17.1732ZM66.7099 16.0474C67.0113 16.0474 67.2865 15.9956 67.5486 15.8921C67.8106 15.7885 68.0334 15.6332 68.2299 15.4521C68.4265 15.258 68.5706 15.038 68.6886 14.7662C68.7934 14.4944 68.8589 14.1968 68.8589 13.8732C68.8589 13.5497 68.8065 13.2521 68.6886 12.9803C68.5837 12.7085 68.4265 12.4885 68.2299 12.2944C68.0334 12.1003 67.8106 11.9579 67.5486 11.8544C67.2865 11.7509 67.0113 11.6991 66.7099 11.6991C66.4086 11.6991 66.1334 11.7509 65.8713 11.8544C65.6093 11.9579 65.3865 12.1132 65.1899 12.2944C64.9934 12.4885 64.8493 12.7085 64.7313 12.9803C64.6265 13.2521 64.561 13.5497 64.561 13.8732C64.561 14.1968 64.6134 14.4944 64.7313 14.7662C64.8362 15.038 64.9934 15.258 65.1899 15.4521C65.3865 15.6462 65.6093 15.7885 65.8713 15.8921C66.1334 15.9956 66.4217 16.0474 66.7099 16.0474Z" fill="white"/>
<path d="M71.0469 10.6895H72.2524V17.0306H71.0469V10.6895Z" fill="white"/>
<path d="M73.5498 10.6895H75.725C76.236 10.6895 76.6946 10.7671 77.1008 10.9224C77.5071 11.0777 77.8477 11.2977 78.136 11.5695C78.4243 11.8542 78.647 12.1906 78.7912 12.5789C78.9484 12.9671 79.0139 13.3942 79.0139 13.86C79.0139 14.3259 78.9353 14.7659 78.7912 15.1542C78.6339 15.5424 78.4243 15.8789 78.136 16.1506C77.8477 16.4224 77.5071 16.6424 77.1008 16.7977C76.6946 16.953 76.236 17.0306 75.725 17.0306H73.5498V10.6895ZM75.6595 15.9047C76.0133 15.9047 76.3277 15.853 76.5898 15.7624C76.865 15.6589 77.0877 15.5294 77.2581 15.3483C77.4415 15.1671 77.5726 14.96 77.6643 14.7012C77.756 14.4553 77.7953 14.1706 77.7953 13.86C77.7953 13.5495 77.756 13.2777 77.6643 13.0189C77.5726 12.773 77.4415 12.553 77.2581 12.3718C77.0746 12.1906 76.8519 12.0612 76.5898 11.9577C76.3146 11.8542 76.0133 11.8153 75.6595 11.8153H74.7553V15.8918H75.6595V15.9047Z" fill="white"/>
<path d="M83.5614 10.6895H84.9373L87.3483 17.0306H86.0118L85.4877 15.5165H83.0111L82.4869 17.0306H81.1504L83.5614 10.6895ZM85.0945 14.4165L84.518 12.8377L84.2821 12.0612H84.2166L83.9808 12.8377L83.4042 14.4165H85.0945Z" fill="white"/>
<path d="M88.1084 17.0306V10.6895H90.3622C90.6636 10.6895 90.9518 10.7412 91.2139 10.8318C91.476 10.9353 91.7118 11.0647 91.9084 11.2459C92.1049 11.4271 92.2622 11.6342 92.3801 11.88C92.498 12.1259 92.5505 12.3977 92.5505 12.6953C92.5505 12.993 92.498 13.2647 92.3801 13.5106C92.2622 13.7565 92.1049 13.9636 91.9084 14.1447C91.7118 14.3259 91.476 14.4553 91.2139 14.5589C90.9518 14.6624 90.6636 14.7012 90.3622 14.7012H89.3139V17.0306H88.1084ZM90.3884 13.5753C90.7029 13.5753 90.9387 13.4847 91.1091 13.3036C91.2663 13.1224 91.3449 12.9283 91.3449 12.6953C91.3449 12.5789 91.3318 12.4753 91.2925 12.3718C91.2532 12.2683 91.1877 12.1777 91.1091 12.0871C91.0305 12.0095 90.9256 11.9447 90.8077 11.893C90.6898 11.8412 90.5456 11.8283 90.3884 11.8283H89.327V13.5753H90.3884Z" fill="white"/>
<path d="M93.415 17.0306V10.6895H95.6688C95.9702 10.6895 96.2585 10.7412 96.5205 10.8318C96.7826 10.9353 97.0185 11.0647 97.215 11.2459C97.4116 11.4271 97.5688 11.6342 97.6868 11.88C97.8047 12.1259 97.8571 12.3977 97.8571 12.6953C97.8571 12.993 97.8047 13.2647 97.6868 13.5106C97.5688 13.7565 97.4116 13.9636 97.215 14.1447C97.0185 14.3259 96.7826 14.4553 96.5205 14.5589C96.2585 14.6624 95.9702 14.7012 95.6688 14.7012H94.6205V17.0306H93.415ZM95.695 13.5753C96.0095 13.5753 96.2454 13.4847 96.4157 13.3036C96.573 13.1224 96.6516 12.9283 96.6516 12.6953C96.6516 12.5789 96.6385 12.4753 96.5992 12.3718C96.5599 12.2683 96.4943 12.1777 96.4157 12.0871C96.3371 12.0095 96.2323 11.9447 96.1143 11.893C95.9964 11.8412 95.8523 11.8283 95.695 11.8283H94.6337V13.5753H95.695Z" fill="white"/>
<path d="M103.557 17.1732C103.085 17.1732 102.639 17.0827 102.22 16.9144C101.814 16.7462 101.46 16.5132 101.159 16.2156C100.857 15.918 100.621 15.5685 100.451 15.1674C100.281 14.7662 100.202 14.3262 100.202 13.8732C100.202 13.4203 100.281 12.9803 100.451 12.5791C100.621 12.1779 100.857 11.8285 101.159 11.5309C101.46 11.2332 101.814 11.0003 102.22 10.8321C102.626 10.6638 103.072 10.5732 103.557 10.5732C104.028 10.5732 104.474 10.6638 104.893 10.8321C105.299 11.0003 105.653 11.2332 105.955 11.5309C106.256 11.8285 106.492 12.1779 106.662 12.5791C106.832 12.9803 106.911 13.4203 106.911 13.8732C106.911 14.3262 106.832 14.7662 106.662 15.1674C106.492 15.5685 106.256 15.918 105.955 16.2156C105.653 16.5132 105.299 16.7462 104.893 16.9144C104.474 17.0956 104.028 17.1732 103.557 17.1732ZM103.557 16.0474C103.858 16.0474 104.133 15.9956 104.395 15.8921C104.657 15.7885 104.88 15.6332 105.077 15.4521C105.273 15.258 105.417 15.038 105.535 14.7662C105.64 14.4944 105.706 14.1968 105.706 13.8732C105.706 13.5497 105.653 13.2521 105.535 12.9803C105.43 12.7085 105.273 12.4885 105.077 12.2944C104.88 12.1003 104.657 11.9579 104.395 11.8544C104.133 11.7509 103.858 11.6991 103.557 11.6991C103.255 11.6991 102.98 11.7509 102.718 11.8544C102.456 11.9579 102.233 12.1132 102.037 12.2944C101.84 12.4885 101.696 12.7085 101.578 12.9803C101.473 13.2521 101.408 13.5497 101.408 13.8732C101.408 14.1968 101.46 14.4944 101.578 14.7662C101.683 15.038 101.84 15.258 102.037 15.4521C102.233 15.6462 102.456 15.7885 102.718 15.8921C102.967 15.9956 103.255 16.0474 103.557 16.0474Z" fill="white"/>
<path d="M107.882 10.6895H109.284L111.865 14.9342H111.931L111.865 13.7177V10.6895H113.071V17.0306H111.8L109.074 12.54H109.009L109.074 13.7565V17.0177H107.882V10.6895Z" fill="white"/>
<path fill-rule="evenodd" clip-rule="evenodd" d="M28.3953 18.1308L12.4746 9.08496L25.0539 21.4308L28.3953 18.1308Z" fill="white"/>
<path fill-rule="evenodd" clip-rule="evenodd" d="M11.007 9.17578C10.9415 9.27931 10.876 9.40872 10.876 9.55108V35.1487C10.876 35.2264 10.9153 35.304 10.9415 35.3817L24.2546 22.2075L11.007 9.17578Z" fill="white"/>
<path fill-rule="evenodd" clip-rule="evenodd" d="M25.054 22.958L12.0029 35.8733C12.0422 35.8604 12.0816 35.8474 12.1209 35.8215L28.6181 26.4521L25.054 22.958Z" fill="white"/>
<path fill-rule="evenodd" clip-rule="evenodd" d="M34.6458 21.6769L29.3782 18.6875L25.8271 22.1946L29.5878 25.8957L34.6458 23.0228C35.1699 22.7251 35.1699 21.9746 34.6458 21.6769Z" fill="white"/>
</svg>
