<svg width="131" height="44" viewBox="0 0 131 44" fill="none" xmlns="http://www.w3.org/2000/svg">
<path d="M122.921 1.81176C125.282 1.81176 126.87 2.26471 127.812 3.18353C128.741 4.10235 129.193 5.69412 129.193 8.03647V35.9894C129.193 38.3318 128.741 39.9106 127.812 40.8165C126.883 41.7353 125.282 42.1753 122.921 42.1753H7.98906C5.6401 42.1753 4.05261 41.7353 3.14916 40.8294C2.24571 39.9235 1.8069 38.3447 1.8069 35.9894V8.04941C1.8069 5.35765 2.10374 3.88235 2.78778 3.10588C3.54926 2.22588 5.21419 1.81176 8.00197 1.81176H122.921ZM122.921 0H8.00197C1.13576 0 0 2.38118 0 8.04941V36.0153C0 41.6706 2.34897 44 7.98906 44H122.921C128.574 44 131 41.6576 131 36.0024V8.04941C131 2.38118 128.574 0 122.921 0Z" fill="white"/>
<path fill-rule="evenodd" clip-rule="evenodd" d="M34.1504 27.384C33.4922 28.8463 33.1695 29.5063 32.3306 30.8004C31.1432 32.6122 29.4783 34.864 27.4004 34.8769C25.5547 34.8898 25.0901 33.6734 22.5863 33.6863C20.0953 33.6993 19.5662 34.8898 17.7335 34.8769C15.6684 34.864 14.0809 32.8193 12.8935 31.0075C9.5766 25.9475 9.22813 20.0075 11.2802 16.8498C12.7387 14.611 15.0231 13.291 17.1785 13.291C19.3726 13.291 20.7536 14.4945 22.5605 14.4945C24.3157 14.4945 25.387 13.291 27.9295 13.291C29.8526 13.291 31.8789 14.3393 33.3244 16.151C28.5877 18.7781 29.3621 25.5722 34.1504 27.384Z" fill="white"/>
<path fill-rule="evenodd" clip-rule="evenodd" d="M26.0191 11.2977C26.9355 10.1071 27.6453 8.43773 27.3872 6.72949C25.8771 6.83302 24.1219 7.79067 23.0893 9.04596C22.1601 10.1848 21.3857 11.8671 21.6825 13.5107C23.3217 13.5495 25.0253 12.566 26.0191 11.2977Z" fill="white"/>
<path fill-rule="evenodd" clip-rule="evenodd" d="M119.307 29.7647H112.647C112.673 30.6706 112.995 31.46 113.615 31.9906C114.17 32.4565 114.906 32.6765 115.796 32.6765C116.79 32.6765 117.681 32.5082 118.494 32.1847L118.842 33.7247C117.9 34.1388 116.777 34.333 115.486 34.333C113.938 34.333 112.724 33.88 111.834 32.9612C110.956 32.0424 110.505 30.8259 110.505 29.2859C110.505 27.7718 110.918 26.5165 111.744 25.5071C112.608 24.433 113.783 23.9024 115.241 23.9024C116.687 23.9024 117.771 24.433 118.507 25.5071C119.1 26.3612 119.397 27.4612 119.397 28.7035C119.384 29.1047 119.358 29.5059 119.307 29.7647ZM109.833 26.0894C109.704 26.0506 109.356 26.0377 109.111 26.0377C108.323 26.0377 107.717 26.3353 107.291 26.9177C106.917 27.4353 106.723 28.0953 106.723 28.8977V34.0353H104.529V27.28C104.529 26.1283 104.477 25.1059 104.439 24.0706H106.375L106.452 26.1412H106.516C106.749 25.4941 107.123 24.9118 107.626 24.5106C108.117 24.1483 108.672 23.9541 109.253 23.9541C109.459 23.9541 109.691 23.9412 109.821 23.9671V26.0894H109.833ZM101.806 32.8577C100.889 33.8671 99.6632 34.3847 98.1402 34.3847C96.6689 34.3847 95.4944 33.893 94.6297 32.9224C93.765 31.9518 93.3261 30.7094 93.3261 29.2341C93.3261 27.6812 93.7779 26.413 94.6684 25.4165C95.5719 24.42 96.7722 23.9283 98.2951 23.9283C99.7664 23.9283 100.941 24.4071 101.831 25.3906C102.683 26.3353 103.109 27.5647 103.109 29.053C103.122 30.6059 102.683 31.8612 101.806 32.8577ZM92.6679 25.8824H90.3448V30.6706C90.3448 31.913 90.732 32.5212 91.5967 32.5212C91.9968 32.5212 92.2936 32.4953 92.5518 32.4177L92.6034 34.1C92.1646 34.2682 91.5838 34.3459 90.8739 34.3459C89.9963 34.3459 89.2864 34.0871 88.796 33.5435C88.2926 33.013 88.0345 32.1071 88.0345 30.8388V25.8824H86.6148V24.0706H88.0345V22.2977L90.3577 21.6377V24.0706H92.6808V25.8824H92.6679ZM84.8595 33.1424C83.9561 33.9577 82.6913 34.3588 81.078 34.3588C79.5808 34.3588 78.3934 34.0741 77.49 33.4918L78.0062 31.6412C78.9742 32.2106 80.0455 32.5082 81.207 32.5082C82.0459 32.5082 82.6913 32.3141 83.1688 31.9388C83.6334 31.5635 83.8657 31.0588 83.8657 30.4118C83.8657 29.8553 83.6722 29.3765 83.2979 28.9883C82.9107 28.6 82.2783 28.2506 81.3877 27.9141C78.9613 27.0083 77.7481 25.6883 77.7481 23.9412C77.7481 22.8024 78.174 21.8577 79.0258 21.133C79.8777 20.4083 81.0134 20.0459 82.4331 20.0459C83.698 20.0459 84.7434 20.2659 85.5823 20.7059L85.0273 22.5177C84.24 22.0906 83.3624 21.8835 82.3686 21.8835C81.5813 21.8835 80.9747 22.0777 80.5359 22.453C80.1616 22.8024 79.9809 23.2165 79.9809 23.7083C79.9809 24.2518 80.1874 24.7047 80.6133 25.0671C80.9876 25.3906 81.6588 25.753 82.6267 26.1412C83.827 26.62 84.6918 27.1894 85.2596 27.8365C85.8146 28.4835 86.0986 29.2859 86.0986 30.2435C86.0856 31.4341 85.6726 32.4047 84.8595 33.1424ZM72.0306 33.0647C71.2046 33.9447 70.1721 34.3847 68.9459 34.3847C67.6295 34.3847 66.7389 33.9059 66.0936 32.9612V38.3059H63.8995V27.4224C63.8995 26.3483 63.8608 25.3647 63.8092 24.0706H65.7581L65.8871 25.753H65.9258C66.6744 24.5883 67.7973 23.9412 69.2944 23.9412C70.4689 23.9412 71.4627 24.3941 72.25 25.3388C73.0373 26.2706 73.4374 27.5 73.4374 29.0271C73.4116 30.7353 72.9598 32.0682 72.0306 33.0647ZM61.0472 33.0647C60.2212 33.9447 59.1887 34.3847 57.9626 34.3847C56.6332 34.3847 55.7556 33.9059 55.1103 32.9612V38.3059H52.9162V27.4224C52.9162 26.3483 52.8646 25.3647 52.8129 24.0706H54.7618L54.8909 25.753H54.9296C55.6782 24.5883 56.801 23.9412 58.3111 23.9412C59.4856 23.9412 60.4664 24.3941 61.2666 25.3388C62.0539 26.2706 62.454 27.5 62.454 29.0271C62.4411 30.7353 61.9765 32.0682 61.0472 33.0647ZM49.1733 34.0353L47.8827 30.0235H43.3655L42.1264 34.0353H39.8291L44.2818 20.1883H47.0438L51.5352 34.0353H49.1733ZM115.061 25.4424C114.338 25.4424 113.744 25.8177 113.292 26.413C112.918 26.8918 112.699 27.4224 112.634 28.1988H117.255C117.268 27.4224 117.126 26.9047 116.829 26.4259C116.454 25.8177 115.861 25.4424 115.061 25.4424ZM45.6112 22.1294H45.5725C45.4305 22.7765 45.2111 23.6435 44.9142 24.7953L43.7656 28.4706H47.4826L46.321 24.7953C46.192 24.42 45.9467 23.4235 45.6112 22.1294ZM68.5588 25.7012C68.0038 25.7012 67.5133 25.8824 67.0745 26.2447C66.6228 26.62 66.326 27.0859 66.1969 27.6812C66.1324 27.953 66.0936 28.1859 66.0936 28.3671V30.0235C66.0936 30.7483 66.3259 31.3694 66.7648 31.8741C67.2036 32.3659 67.7973 32.6247 68.5071 32.6247C69.346 32.6247 70.0043 32.3012 70.4689 31.6541C70.9335 31.0071 71.1659 30.153 71.1659 29.0918C71.1659 28.1212 70.9464 27.3188 70.5076 26.6847C70.0172 26.0377 69.3719 25.7012 68.5588 25.7012ZM98.2177 25.5588C97.3271 25.5588 96.656 25.96 96.1914 26.7494C95.7913 27.4094 95.5977 28.1988 95.5977 29.1565C95.5977 30.0753 95.7913 30.8647 96.1914 31.5247C96.6689 32.3141 97.34 32.7153 98.2048 32.7153C99.0437 32.7153 99.7148 32.3141 100.192 31.4988C100.605 30.8388 100.812 30.0365 100.812 29.1177C100.812 28.1988 100.618 27.4094 100.218 26.7494C99.7535 25.9471 99.0824 25.5588 98.2177 25.5588ZM57.5754 25.7012C57.0333 25.7012 56.53 25.8824 56.0912 26.2447C55.6394 26.62 55.3555 27.0859 55.2135 27.6812C55.149 27.953 55.1103 28.1859 55.1103 28.3671V30.0235C55.1103 30.7483 55.3297 31.3694 55.7814 31.8741C56.2202 32.3659 56.801 32.6247 57.5238 32.6247C58.3627 32.6247 59.0209 32.3012 59.4856 31.6541C59.9502 31.0071 60.1825 30.153 60.1825 29.0918C60.1825 28.1212 59.9631 27.3188 59.5243 26.6847C59.0338 26.0377 58.3885 25.7012 57.5754 25.7012Z" fill="white"/>
<path d="M41.2871 9.99099C41.8292 9.9004 42.539 9.84863 43.2747 9.84863C44.5524 9.84863 45.4301 10.1075 46.0625 10.638C46.7207 11.1816 47.1208 11.9839 47.1208 13.1616C47.1208 14.378 46.7078 15.2969 46.0625 15.8792C45.3784 16.5004 44.2943 16.811 42.9778 16.811C42.2422 16.811 41.7001 16.7722 41.3 16.7204V9.99099H41.2871ZM42.539 15.7886C42.7068 15.8145 42.9778 15.8145 43.2231 15.8145C44.8493 15.8275 45.8043 14.9345 45.8043 13.1875C45.8173 11.6733 44.9396 10.8063 43.3779 10.8063C42.9778 10.8063 42.6939 10.8322 42.5261 10.871V15.7886H42.539Z" fill="white"/>
<path d="M52.8514 14.2232C52.8514 16.035 51.5737 16.8503 50.3218 16.8503C48.9279 16.8503 47.8438 15.8797 47.8438 14.3009C47.8438 12.6703 48.9021 11.6738 50.3992 11.6738C51.8705 11.6868 52.8514 12.7221 52.8514 14.2232ZM49.1344 14.275C49.1344 15.2327 49.599 15.9574 50.3605 15.9574C51.0704 15.9574 51.5608 15.2585 51.5608 14.2621C51.5608 13.4856 51.2123 12.6056 50.3605 12.6056C49.4829 12.6056 49.1344 13.4597 49.1344 14.275Z" fill="white"/>
<path d="M54.5416 11.8027L55.0579 14.0416C55.174 14.5721 55.2773 15.1027 55.3676 15.6463H55.3934C55.4967 15.1027 55.6516 14.5592 55.7935 14.0545L56.426 11.8027H57.4327L58.0522 14.0027C58.207 14.5851 58.3361 15.1157 58.4523 15.6592H58.4781C58.5555 15.1157 58.6717 14.5851 58.8007 14.0027L59.3428 11.8027H60.5689L59.0201 16.7463H57.8715L57.2778 14.7404C57.1229 14.2227 57.0196 13.7569 56.9035 13.1616H56.8777C56.7744 13.7698 56.6454 14.2616 56.5034 14.7404L55.871 16.7463H54.7094L53.251 11.8027H54.5416Z" fill="white"/>
<path d="M61.3825 13.2783C61.3825 12.7089 61.3696 12.2301 61.3438 11.803H62.4408L62.5053 12.5406H62.5311C62.7376 12.1524 63.2797 11.6865 64.1057 11.6865C64.9705 11.6865 65.861 12.243 65.861 13.8089V16.7465H64.6091V13.9512C64.6091 13.2395 64.3509 12.6959 63.6669 12.6959C63.1765 12.6959 62.828 13.0453 62.6989 13.4336C62.6602 13.5501 62.6473 13.6924 62.6473 13.8348V16.7336H61.3954V13.2783H61.3825Z" fill="white"/>
<path d="M67.1777 9.53809H68.4297V16.7463H67.1777V9.53809Z" fill="white"/>
<path d="M74.4696 14.2232C74.4696 16.035 73.1919 16.8503 71.9399 16.8503C70.5461 16.8503 69.4619 15.8797 69.4619 14.3009C69.4619 12.6703 70.5202 11.6738 72.0174 11.6738C73.4887 11.6868 74.4696 12.7221 74.4696 14.2232ZM70.7526 14.275C70.7526 15.2327 71.2172 15.9574 71.9787 15.9574C72.6885 15.9574 73.179 15.2585 73.179 14.2621C73.179 13.4856 72.8305 12.6056 71.9787 12.6056C71.101 12.6056 70.7526 13.4597 70.7526 14.275Z" fill="white"/>
<path d="M78.2638 16.7465L78.1863 16.203H78.1605C77.8508 16.5912 77.3345 16.863 76.7021 16.863C75.7083 16.863 75.1533 16.1383 75.1533 15.3877C75.1533 14.1324 76.2633 13.5112 78.0831 13.5242V13.4465C78.0831 13.123 77.954 12.5795 77.0764 12.5795C76.5859 12.5795 76.0826 12.7348 75.747 12.9418L75.5018 12.1265C75.8632 11.9065 76.5085 11.6865 77.2829 11.6865C78.8575 11.6865 79.3221 12.6959 79.3221 13.7701V15.5559C79.3221 16.0089 79.3479 16.4359 79.3866 16.7465H78.2638ZM78.1089 14.3265C77.2313 14.3006 76.3923 14.4948 76.3923 15.2453C76.3923 15.7371 76.7021 15.9571 77.1022 15.9571C77.5926 15.9571 77.9669 15.6336 78.0702 15.2712C78.096 15.1806 78.1089 15.0771 78.1089 14.9995V14.3265Z" fill="white"/>
<path d="M85.1949 9.53809V15.3616C85.1949 15.8663 85.2208 16.4228 85.2337 16.7593H84.1237L84.0721 15.9828H84.0463C83.7494 16.5263 83.1557 16.8757 82.433 16.8757C81.2585 16.8757 80.3292 15.8663 80.3292 14.3522C80.3163 12.6957 81.3488 11.7122 82.5362 11.7122C83.2203 11.7122 83.6978 11.9969 83.9301 12.3593H83.9559V9.53809H85.1949ZM83.943 13.8604C83.943 13.7569 83.9301 13.6404 83.9172 13.5369C83.801 13.0451 83.4139 12.6569 82.846 12.6569C82.0458 12.6569 81.5941 13.3687 81.5941 14.2875C81.5941 15.1934 82.0458 15.8534 82.8331 15.8534C83.3364 15.8534 83.7881 15.504 83.9043 14.9734C83.9301 14.8569 83.943 14.7404 83.943 14.611V13.8604Z" fill="white"/>
<path d="M93.3133 14.2232C93.3133 16.035 92.0356 16.8503 90.7837 16.8503C89.3898 16.8503 88.3057 15.8797 88.3057 14.3009C88.3057 12.6703 89.364 11.6738 90.8611 11.6738C92.3325 11.6868 93.3133 12.7221 93.3133 14.2232ZM89.5963 14.275C89.5963 15.2327 90.0609 15.9574 90.8224 15.9574C91.5323 15.9574 92.0227 15.2585 92.0227 14.2621C92.0227 13.4856 91.6742 12.6056 90.8224 12.6056C89.9577 12.6056 89.5963 13.4597 89.5963 14.275Z" fill="white"/>
<path d="M94.3327 13.2783C94.3327 12.7089 94.3198 12.2301 94.2939 11.803H95.391L95.4555 12.5406H95.4813C95.6878 12.1524 96.2299 11.6865 97.0559 11.6865C97.9206 11.6865 98.8112 12.243 98.8112 13.8089V16.7465H97.5593V13.9512C97.5593 13.2395 97.3011 12.6959 96.6171 12.6959C96.1267 12.6959 95.7782 13.0453 95.6491 13.4336C95.6104 13.5501 95.5975 13.6924 95.5975 13.8348V16.7336H94.3456V13.2783H94.3327Z" fill="white"/>
<path d="M103.663 10.3926V11.8032H104.851V12.7349H103.663V14.922C103.663 15.5173 103.831 15.8408 104.296 15.8408C104.502 15.8408 104.67 15.8149 104.786 15.7761L104.812 16.7338C104.631 16.7985 104.309 16.8502 103.909 16.8502C103.457 16.8502 103.07 16.6949 102.837 16.449C102.579 16.1643 102.45 15.7114 102.45 15.0643V12.7349H101.74V11.8032H102.45V10.6902L103.663 10.3926Z" fill="white"/>
<path d="M105.78 9.53809H107.032V12.4887H107.058C107.213 12.2557 107.407 12.0616 107.678 11.9193C107.923 11.7769 108.22 11.6993 108.53 11.6993C109.368 11.6993 110.246 12.2557 110.246 13.8475V16.7593H108.994V13.9769C108.994 13.2522 108.736 12.7216 108.039 12.7216C107.549 12.7216 107.213 13.0451 107.071 13.4204C107.032 13.524 107.019 13.6534 107.019 13.7957V16.7463H105.768V9.53809H105.78Z" fill="white"/>
<path d="M112.466 14.6239C112.492 15.5169 113.201 15.9051 113.989 15.9051C114.569 15.9051 114.982 15.8275 115.357 15.6851L115.537 16.5522C115.112 16.7204 114.531 16.8628 113.821 16.8628C112.22 16.8628 111.278 15.8792 111.278 14.3651C111.278 12.9933 112.104 11.6992 113.692 11.6992C115.292 11.6992 115.821 13.0192 115.821 14.1063C115.821 14.3392 115.796 14.5204 115.783 14.6369H112.466V14.6239ZM114.634 13.7569C114.647 13.3039 114.44 12.5533 113.614 12.5533C112.84 12.5533 112.517 13.2522 112.466 13.7569H114.634Z" fill="white"/>
</svg>
