<svg width="136" height="44" viewBox="0 0 136 44" fill="none" xmlns="http://www.w3.org/2000/svg">
<path d="M136 38.0562C136 41.3437 133.315 44 129.991 44H6.00899C2.68544 44 0 41.3437 0 38.0562V5.94381C0 2.65631 2.68544 0 6.00899 0H129.991C133.315 0 136 2.65631 136 5.94381V38.0562Z" fill="black"/>
<path d="M10.21 8.46777V23.3799V38.2657L25.392 23.3799L10.21 8.46777Z" fill="url(#paint0_linear)"/>
<path d="M29.46 19.3567L23.3447 15.8588L10.21 8.36328V8.46848L25.392 23.3806L29.46 19.3567Z" fill="url(#paint1_linear)"/>
<path d="M10.21 38.2667V38.3719L23.3447 30.8764L29.46 27.3785L25.392 23.3809L10.21 38.2667Z" fill="url(#paint2_linear)"/>
<path d="M29.4606 19.3564L25.3926 23.3804L29.4606 27.378L36.48 23.3804L29.4606 19.3564Z" fill="url(#paint3_linear)"/>
<path d="M105.849 29.1929C105.29 29.1929 104.758 29.0877 104.28 28.8773C103.801 28.6669 103.402 28.3513 103.083 27.9042H102.977C103.03 28.4039 103.083 28.8773 103.083 29.3507V32.9275H101.754V20.3824H102.844L103.03 21.5659H103.083C103.429 21.0925 103.828 20.7506 104.28 20.5402C104.732 20.3298 105.264 20.2246 105.849 20.2246C107.018 20.2246 107.896 20.6191 108.534 21.4081C109.172 22.1971 109.491 23.3017 109.491 24.7219C109.491 26.1421 109.172 27.2467 108.534 28.0357C107.869 28.7984 106.965 29.1929 105.849 29.1929ZM105.636 21.3292C104.732 21.3292 104.094 21.5659 103.695 22.0656C103.296 22.5653 103.083 23.328 103.083 24.4063V24.6956C103.083 25.9054 103.296 26.7733 103.695 27.2993C104.094 27.8253 104.758 28.0883 105.662 28.0883C106.407 28.0883 107.018 27.7727 107.444 27.1678C107.869 26.5629 108.082 25.7213 108.082 24.6693C108.082 23.591 107.869 22.7494 107.444 22.1708C107.018 21.6185 106.433 21.3292 105.636 21.3292Z" fill="#F9F9F9"/>
<path d="M112.549 29.035H111.22V16.7266H112.549V29.035Z" fill="#F9F9F9"/>
<path d="M120.18 29.0351L119.914 27.799H119.861C119.436 28.3513 118.984 28.7195 118.558 28.9036C118.133 29.0877 117.574 29.1929 116.936 29.1929C116.059 29.1929 115.394 28.9825 114.889 28.5354C114.384 28.0883 114.145 27.4571 114.145 26.6418C114.145 24.8797 115.554 23.9855 118.399 23.8803L119.888 23.8277V23.3017C119.888 22.6179 119.728 22.1182 119.436 21.8026C119.143 21.487 118.665 21.3292 118.026 21.3292C117.309 21.3292 116.458 21.5396 115.554 21.9867L115.155 20.9873C115.58 20.7506 116.059 20.5665 116.564 20.435C117.069 20.3035 117.601 20.2246 118.106 20.2246C119.143 20.2246 119.914 20.4613 120.419 20.9084C120.925 21.3555 121.164 22.0919 121.164 23.1176V29.0351H120.18ZM117.176 28.1146C118 28.1146 118.638 27.8779 119.117 27.4308C119.595 26.9837 119.834 26.3525 119.834 25.5372V24.7482L118.505 24.8008C117.442 24.8271 116.697 25.0112 116.218 25.3005C115.74 25.5898 115.527 26.0369 115.527 26.6418C115.527 27.1152 115.66 27.4834 115.953 27.7201C116.245 27.9831 116.644 28.1146 117.176 28.1146Z" fill="#F9F9F9"/>
<path d="M121.935 20.3818H123.344L125.258 25.3262C125.684 26.4572 125.949 27.2725 126.029 27.7722H126.082C126.162 27.5092 126.295 27.0358 126.508 26.4046C126.72 25.747 127.465 23.7482 128.688 20.4081H130.124L126.375 30.2444C126.003 31.2175 125.577 31.9013 125.072 32.3221C124.567 32.7429 123.955 32.927 123.237 32.927C122.839 32.927 122.44 32.8744 122.041 32.7955V31.7435C122.333 31.7961 122.652 31.8487 123.025 31.8487C123.929 31.8487 124.593 31.349 124.966 30.3233L125.444 29.0872L121.935 20.3818Z" fill="#F9F9F9"/>
<path d="M81.2549 21.1722C81.6803 21.5141 82.5577 22.2505 82.5577 23.6181C82.5577 24.9594 81.7867 25.5906 81.0156 26.1955C80.7763 26.4322 80.5104 26.6952 80.5104 27.0897C80.5104 27.4842 80.7763 27.6946 80.989 27.8787L81.6537 28.3784C82.4514 29.0622 83.1959 29.6671 83.1959 30.9295C83.1959 32.639 81.5208 34.3485 78.3833 34.3485C75.7245 34.3485 74.4482 33.0861 74.4482 31.7448C74.4482 31.0873 74.7673 30.1668 75.8574 29.5356C77.0007 28.8518 78.5429 28.7466 79.3671 28.694C79.1012 28.3784 78.8088 28.0365 78.8088 27.4579C78.8088 27.1423 78.8885 26.9582 78.9949 26.7478C78.7822 26.7741 78.596 26.7741 78.4099 26.7741C76.469 26.7741 75.3788 25.3539 75.3788 23.9337C75.3788 23.0921 75.7511 22.1716 76.5487 21.5141C77.5857 20.6724 78.8353 20.5146 79.8191 20.5146H83.5947L82.4248 21.1722H81.2549ZM79.9521 29.22C79.7925 29.1937 79.7128 29.1937 79.5266 29.1937C79.3671 29.1937 78.3833 29.22 77.6123 29.483C77.2134 29.6145 76.0436 30.0616 76.0436 31.3503C76.0436 32.639 77.3198 33.5595 79.2608 33.5595C81.0156 33.5595 81.9462 32.7179 81.9462 31.6133C81.9462 30.6928 81.3613 30.1931 79.9521 29.22ZM80.4838 25.7747C80.9092 25.3539 80.9358 24.7753 80.9358 24.4597C80.9358 23.1447 80.1382 21.1196 78.6226 21.1196C78.144 21.1196 77.6389 21.3563 77.3464 21.7245C77.0273 22.0927 76.9476 22.5924 76.9476 23.0658C76.9476 24.2756 77.6654 26.3007 79.2342 26.3007C79.7128 26.3007 80.1914 26.064 80.4838 25.7747Z" fill="#F9F9F9"/>
<path d="M69.7149 28.931C66.8168 28.931 65.248 26.6955 65.248 24.6704C65.248 22.3034 67.2156 20.2783 69.9808 20.2783C72.6662 20.2783 74.3413 22.356 74.3413 24.5389C74.3679 26.6692 72.6928 28.931 69.7149 28.931ZM72.0015 27.4582C72.4535 26.8796 72.5599 26.1432 72.5599 25.4594C72.5599 23.8551 71.7888 20.8306 69.5288 20.8306C68.9173 20.8306 68.3323 21.0673 67.8803 21.4355C67.1624 22.0667 67.0295 22.8557 67.0295 23.6447C67.0295 25.4331 67.9335 28.3787 70.1403 28.3787C70.8582 28.405 71.5761 28.0368 72.0015 27.4582Z" fill="#F9F9F9"/>
<path d="M59.7979 28.931C56.8998 28.931 55.3311 26.6955 55.3311 24.6704C55.3311 22.3034 57.2986 20.2783 60.0638 20.2783C62.7492 20.2783 64.4243 22.356 64.4243 24.5389C64.4509 26.6692 62.7758 28.931 59.7979 28.931ZM62.0845 27.4582C62.5365 26.8796 62.6429 26.1432 62.6429 25.4594C62.6429 23.8551 61.8718 20.8306 59.6118 20.8306C59.0003 20.8306 58.4153 21.0673 57.9633 21.4355C57.2454 22.0667 57.1125 22.8557 57.1125 23.6447C57.1125 25.4331 58.0165 28.3787 60.2233 28.3787C60.9412 28.405 61.6591 28.0368 62.0845 27.4582Z" fill="#F9F9F9"/>
<path d="M53.9483 28.641L51.3161 29.2459C50.2525 29.4037 49.2953 29.5615 48.285 29.5615C43.2066 29.5615 41.2656 25.8795 41.2656 22.9865C41.2656 19.4623 44.0042 16.1748 48.6838 16.1748C49.6676 16.1748 50.6248 16.3326 51.5022 16.5693C52.8848 16.9638 53.5229 17.4109 53.9217 17.7002L52.4062 19.1467L51.7681 19.3045L52.2201 18.5681C51.5819 17.9632 50.4652 16.8586 48.285 16.8586C45.3868 16.8586 43.18 19.0415 43.18 22.2238C43.18 25.6428 45.6793 28.8514 49.6942 28.8514C50.8641 28.8514 51.4756 28.6147 52.034 28.4043V25.4587L49.2688 25.6165L50.7311 24.8275H54.6396L54.161 25.2746C54.0281 25.3798 54.0015 25.4324 53.9749 25.5639C53.9483 25.7217 53.9483 26.2477 53.9483 26.4318V28.641Z" fill="#F9F9F9"/>
<path d="M87.0775 28.115C86.4659 28.0624 86.333 27.9572 86.333 27.2471V27.0367V16.9638C86.333 16.9375 86.333 16.8849 86.333 16.8586C86.4127 16.2274 86.5989 16.1222 87.1572 15.7803H84.5516L83.1689 16.4378H84.5781V27.063V27.6679C84.5781 28.0361 84.4984 28.0887 84.073 28.641H87.3168L88.0081 28.2465C87.689 28.1939 87.3965 28.1676 87.0775 28.115Z" fill="#F9F9F9"/>
<path d="M94.5487 28.2988C94.336 28.404 94.1499 28.5355 93.9372 28.6144C93.3256 28.8774 92.7141 28.9563 92.1557 28.9563C91.5708 28.9563 90.6668 28.93 89.7362 28.2462C88.4334 27.352 87.875 25.8003 87.875 24.4327C87.875 21.6449 90.1882 20.251 92.0494 20.251C92.7141 20.251 93.3788 20.4088 93.9372 20.7507C94.8412 21.3556 95.0805 22.1183 95.2134 22.5391L90.9327 24.2749L89.5235 24.3801C89.9755 26.6682 91.5442 28.0095 93.299 28.0095C94.2296 28.0095 94.8943 27.6939 95.5325 27.3783L94.5487 28.2988ZM92.847 22.9073C93.1927 22.7758 93.3788 22.6706 93.3788 22.4076C93.3788 21.6975 92.5546 20.8559 91.5708 20.8559C90.8263 20.8559 89.4703 21.4082 89.4703 23.3544C89.4703 23.67 89.4969 23.9856 89.5235 24.3012L92.847 22.9073Z" fill="#F9F9F9"/>
<path d="M96.3298 20.4098V21.5933H96.1703V20.4098H95.7715V20.2783H96.7021V20.4098H96.3298Z" fill="#F9F9F9"/>
<path d="M97.9515 21.5933V20.3835L97.5793 21.5933H97.4729L97.1007 20.3835V21.5933H96.9678V20.2783H97.2071L97.5527 21.3303L97.8984 20.2783H98.1377V21.5933H97.9515Z" fill="#F9F9F9"/>
<path d="M44.9344 12.6244H44.0304C44.0304 12.4929 43.9506 12.151 43.7645 11.5724H42.4351C42.249 12.151 42.1692 12.4929 42.1692 12.6244H41.3184C41.3184 12.5455 41.5311 11.9406 41.9831 10.8097C42.4351 9.67878 42.6478 9.04758 42.6478 8.94238H43.7379C43.7379 9.04758 43.9506 9.65248 44.3494 10.7834C44.7217 11.9143 44.9344 12.5192 44.9344 12.6244ZM43.605 11.0201C43.2859 10.047 43.1264 9.52098 43.1264 9.44208H43.0732C43.0732 9.52098 42.9137 10.047 42.568 11.0201H43.605Z" fill="#F9F9FA"/>
<path d="M48.6036 12.6243H47.8857C47.8857 12.5454 47.6198 12.1509 47.088 11.3882C46.5297 10.5992 46.2372 10.0732 46.1574 9.78392H46.1043C46.1574 10.2047 46.184 10.5729 46.184 10.9148C46.184 11.3882 46.184 11.9405 46.2372 12.6243H45.5459C45.5725 12.0457 45.5991 11.3882 45.5991 10.7044C45.5991 10.0206 45.5725 9.44202 45.5459 8.94232H46.3967C46.3967 9.04752 46.636 9.44202 47.1146 10.1258C47.6198 10.8622 47.9123 11.3619 47.9654 11.6249H48.0186C47.9655 11.2041 47.9389 10.8359 47.9389 10.494C47.9389 9.99432 47.9123 9.46832 47.8857 8.91602H48.6036C48.577 9.38942 48.5504 9.96802 48.5504 10.6781C48.577 11.4145 48.577 12.0457 48.6036 12.6243Z" fill="#F9F9FA"/>
<path d="M52.7519 10.6519C52.7519 11.1779 52.5658 11.6513 52.2201 12.0458C51.8745 12.4403 51.3959 12.6507 50.7578 12.6507C50.4653 12.6507 50.0931 12.6507 49.5879 12.6244C49.6145 12.0458 49.6145 11.4146 49.6145 10.7045C49.6145 10.0207 49.6145 9.44208 49.5879 8.94238H50.0931C50.1728 8.94238 50.3058 8.94238 50.4653 8.94238C50.6248 8.94238 50.7312 8.94238 50.7844 8.94238C51.4757 8.94238 51.9809 9.10018 52.2733 9.44208C52.5924 9.78399 52.7519 10.1785 52.7519 10.6519ZM51.9543 10.7834C51.9543 10.4152 51.8479 10.1259 51.6352 9.86289C51.4225 9.62618 51.1034 9.49468 50.6514 9.49468C50.5717 9.49468 50.4653 9.49468 50.3058 9.52098C50.3324 9.88919 50.3324 10.2837 50.3324 10.7045C50.3324 11.1516 50.3324 11.5987 50.359 12.0458C50.4919 12.0721 50.5983 12.0721 50.7312 12.0721C51.13 12.0721 51.4491 11.9406 51.6352 11.7039C51.8745 11.4409 51.9543 11.1516 51.9543 10.7834Z" fill="#F9F9FA"/>
<path d="M56.5533 12.6244H55.7025C55.4898 11.9669 55.3037 11.5461 55.1973 11.3883C55.091 11.2305 54.8783 11.1516 54.639 11.1516C54.5326 11.1516 54.4262 11.1516 54.3199 11.1516C54.3199 11.625 54.3199 12.1247 54.3465 12.6244H53.5488C53.5754 12.0458 53.5754 11.4146 53.5754 10.7045C53.5754 10.0207 53.5754 9.44208 53.5488 8.94238H54.054C54.1072 8.94238 54.2401 8.94238 54.3997 8.94238C54.5858 8.94238 54.7453 8.94238 54.9048 8.94238C55.7823 8.94238 56.2077 9.23168 56.2077 9.83659C56.2077 10.31 55.9684 10.6256 55.4632 10.8097V10.8623C55.6493 10.9149 55.8354 11.0727 55.9684 11.3094C56.1279 11.5198 56.314 11.9669 56.5533 12.6244ZM55.4898 10.0207C55.4898 9.65248 55.2505 9.46838 54.7453 9.46838C54.5592 9.46838 54.3997 9.46838 54.2667 9.52098C54.2933 9.81028 54.2933 10.2048 54.2933 10.6519C54.3997 10.6519 54.4794 10.6519 54.5592 10.6519C55.1973 10.6519 55.4898 10.4415 55.4898 10.0207Z" fill="#F9F9FA"/>
<path d="M60.6483 10.7306C60.6483 11.3092 60.4621 11.7826 60.1165 12.1771C59.7708 12.5453 59.3188 12.7557 58.7871 12.7557C58.2819 12.7557 57.8565 12.5716 57.5374 12.2297C57.1918 11.8878 57.0322 11.4407 57.0322 10.8884C57.0322 10.3098 57.2183 9.83638 57.564 9.44188C57.9096 9.07368 58.3616 8.86328 58.8934 8.86328C59.3986 8.86328 59.824 9.04738 60.1431 9.38928C60.4887 9.73118 60.6483 10.1783 60.6483 10.7306ZM59.8772 10.8095C59.8772 10.415 59.7708 10.0994 59.5847 9.86268C59.372 9.62598 59.1327 9.49448 58.8402 9.49448C58.5744 9.49448 58.3351 9.62598 58.1224 9.86268C57.9362 10.0994 57.8299 10.415 57.8299 10.8095C57.8299 11.204 57.9362 11.5196 58.1489 11.7563C58.3616 11.993 58.6009 12.1245 58.8934 12.1245C59.1593 12.1245 59.3986 11.993 59.6113 11.7563C59.7708 11.4933 59.8772 11.1777 59.8772 10.8095Z" fill="#F9F9FA"/>
<path d="M62.2703 12.6244H61.4727C61.4992 12.0458 61.4992 11.3883 61.4992 10.7045C61.4992 10.0207 61.4992 9.44208 61.4727 8.94238H62.2703C62.2437 9.41578 62.2437 9.99439 62.2437 10.7045C62.2437 11.4146 62.2437 12.0458 62.2703 12.6244Z" fill="#F9F9FA"/>
<path d="M66.4179 10.6519C66.4179 11.1779 66.2318 11.6513 65.8862 12.0458C65.5405 12.4403 65.0619 12.6507 64.4238 12.6507C64.1313 12.6507 63.7591 12.6507 63.2539 12.6244C63.2805 12.0458 63.2805 11.4146 63.2805 10.7045C63.2805 10.0207 63.2805 9.44208 63.2539 8.94238H63.7591C63.8389 8.94238 63.9718 8.94238 64.1313 8.94238C64.2909 8.94238 64.3972 8.94238 64.4504 8.94238C65.1417 8.94238 65.6469 9.10018 65.9393 9.44208C66.2584 9.78399 66.4179 10.1785 66.4179 10.6519ZM65.6203 10.7834C65.6203 10.4152 65.5139 10.1259 65.3012 9.86289C65.0885 9.62618 64.7694 9.49468 64.3174 9.49468C64.2377 9.49468 64.1313 9.49468 63.9718 9.52098C63.9984 9.88919 63.9984 10.2837 63.9984 10.7045C63.9984 11.1516 63.9984 11.5987 64.025 12.0458C64.1579 12.0721 64.2643 12.0721 64.3972 12.0721C64.796 12.0721 65.1151 11.9406 65.3012 11.7039C65.5405 11.4409 65.6203 11.1516 65.6203 10.7834Z" fill="#F9F9FA"/>
<path d="M71.8953 12.6244H70.9913C70.9913 12.4929 70.9116 12.151 70.7254 11.5724H69.396C69.2099 12.151 69.1301 12.4929 69.1301 12.6244H68.2793C68.2793 12.5455 68.492 11.9406 68.944 10.8097C69.396 9.67878 69.6087 9.04758 69.6087 8.94238H70.6988C70.6988 9.04758 70.9116 9.65248 71.3104 10.7834C71.7092 11.9143 71.8953 12.5192 71.8953 12.6244ZM70.5925 11.0201C70.2734 10.047 70.1139 9.52098 70.1139 9.44208H70.0607C70.0607 9.52098 69.9012 10.047 69.5555 11.0201H70.5925Z" fill="#F9F9FA"/>
<path d="M75.2452 9.91549C75.2452 10.3626 75.0857 10.7045 74.7401 10.9149C74.3944 11.1253 73.9956 11.2305 73.4904 11.2305C73.4106 11.2305 73.3309 11.2305 73.3043 11.2305C73.3043 11.5724 73.3043 12.0458 73.3309 12.6244H72.5332C72.5598 12.0721 72.5598 11.4409 72.5598 10.7045C72.5598 10.0207 72.5598 9.44208 72.5332 8.94238H73.0384C73.1182 8.94238 73.2511 8.94238 73.4372 8.94238C73.6499 8.94238 73.8095 8.94238 73.969 8.94238C74.3412 8.94238 74.6337 9.02128 74.873 9.17908C75.1123 9.33688 75.2452 9.57358 75.2452 9.91549ZM74.5008 10.0733C74.5008 9.67878 74.2349 9.46838 73.6765 9.46838C73.5436 9.46838 73.4106 9.49468 73.2511 9.52098C73.2777 9.88918 73.2777 10.2837 73.2777 10.7308C73.3309 10.7308 73.384 10.7308 73.4372 10.7308C74.1551 10.7308 74.5008 10.4941 74.5008 10.0733Z" fill="#F9F9FA"/>
<path d="M78.6485 9.91549C78.6485 10.3626 78.489 10.7045 78.1434 10.9149C77.7977 11.1253 77.3989 11.2305 76.8937 11.2305C76.8139 11.2305 76.7342 11.2305 76.7076 11.2305C76.7076 11.5724 76.7076 12.0458 76.7342 12.6244H75.9365C75.9631 12.0721 75.9631 11.4409 75.9631 10.7045C75.9631 10.0207 75.9631 9.44208 75.9365 8.94238H76.4417C76.5215 8.94238 76.6544 8.94238 76.8405 8.94238C77.0532 8.94238 77.2128 8.94238 77.3723 8.94238C77.7445 8.94238 78.037 9.02128 78.2763 9.17908C78.5422 9.33688 78.6485 9.57358 78.6485 9.91549ZM77.9307 10.0733C77.9307 9.67878 77.6648 9.46838 77.1064 9.46838C76.9735 9.46838 76.8405 9.49468 76.681 9.52098C76.7076 9.88918 76.7076 10.2837 76.7076 10.7308C76.7608 10.7308 76.8139 10.7308 76.8671 10.7308C77.585 10.7308 77.9307 10.4941 77.9307 10.0733Z" fill="#F9F9FA"/>
<path d="M84.2586 10.7306C84.2586 11.3092 84.0725 11.7826 83.7268 12.1771C83.3812 12.5716 82.9292 12.7557 82.3974 12.7557C81.8922 12.7557 81.4668 12.5716 81.1478 12.2297C80.8021 11.8878 80.6426 11.4407 80.6426 10.8884C80.6426 10.3098 80.8287 9.83638 81.1743 9.44188C81.52 9.07368 81.972 8.86328 82.5038 8.86328C83.009 8.86328 83.4344 9.04738 83.7534 9.38928C84.0991 9.73118 84.2586 10.1783 84.2586 10.7306ZM83.461 10.8095C83.461 10.415 83.3546 10.0994 83.1685 9.86268C82.9558 9.62598 82.7165 9.49448 82.424 9.49448C82.1581 9.49448 81.9188 9.62598 81.7061 9.86268C81.52 10.0994 81.4137 10.415 81.4137 10.8095C81.4137 11.204 81.52 11.5196 81.7327 11.7563C81.9454 11.993 82.1847 12.1245 82.4772 12.1245C82.7431 12.1245 82.9824 11.993 83.1951 11.7563C83.3812 11.4933 83.461 11.1777 83.461 10.8095Z" fill="#F9F9FA"/>
<path d="M88.1407 12.6243H87.4228C87.4228 12.5454 87.1569 12.1509 86.6251 11.3882C86.0668 10.5992 85.7743 10.0732 85.6945 9.78392H85.6414C85.6945 10.2047 85.7211 10.5729 85.7211 10.9148C85.7211 11.3882 85.7211 11.9405 85.7743 12.6243H85.083C85.1096 12.0457 85.1362 11.3882 85.1362 10.7044C85.1362 10.0206 85.1096 9.44202 85.083 8.94232H85.9338C85.9338 9.04752 86.1731 9.44202 86.6517 10.1258C87.1569 10.8622 87.4494 11.3619 87.5026 11.6249H87.5557C87.5026 11.2041 87.476 10.8359 87.476 10.494C87.476 9.99432 87.476 9.46832 87.4228 8.91602H88.1407C88.1141 9.38942 88.0875 9.96802 88.0875 10.6781C88.0875 11.4145 88.1141 12.0457 88.1407 12.6243Z" fill="#F9F9FA"/>
<defs>
<linearGradient id="paint0_linear" x1="17.7961" y1="8.47067" x2="17.7961" y2="38.2693" gradientUnits="userSpaceOnUse">
<stop stop-color="#257CB0"/>
<stop offset="0.2863" stop-color="#4A93B5"/>
<stop offset="0.767" stop-color="#78BCBB"/>
<stop offset="1" stop-color="#89CFBD"/>
</linearGradient>
<linearGradient id="paint1_linear" x1="10.2006" y1="15.867" x2="29.4718" y2="15.867" gradientUnits="userSpaceOnUse">
<stop stop-color="#52C1AD"/>
<stop offset="1" stop-color="#DEE89A"/>
</linearGradient>
<linearGradient id="paint2_linear" x1="19.836" y1="23.3712" x2="19.836" y2="38.3787" gradientUnits="userSpaceOnUse">
<stop stop-color="#EC413D"/>
<stop offset="0.1668" stop-color="#DA4452"/>
<stop offset="0.5748" stop-color="#B0487A"/>
<stop offset="0.8619" stop-color="#954A92"/>
<stop offset="1" stop-color="#8A4A9D"/>
</linearGradient>
<linearGradient id="paint3_linear" x1="30.9361" y1="19.3687" x2="30.9361" y2="27.3722" gradientUnits="userSpaceOnUse">
<stop stop-color="#F58879"/>
<stop offset="0.1194" stop-color="#F69079"/>
<stop offset="0.7128" stop-color="#FCB877"/>
<stop offset="1" stop-color="#FEC874"/>
</linearGradient>
</defs>
</svg>
