<svg width="24" height="22" viewBox="0 0 24 22" fill="none" xmlns="http://www.w3.org/2000/svg">
<path d="M21.4824 19.7832C21.8991 20.1813 21.8991 20.8033 21.4824 21.2014C21.2741 21.4004 21.0137 21.5 20.7533 21.5C20.4929 21.5 20.2325 21.4004 20.0242 21.2014L11.7437 13.2891L3.59342 21.2014C3.3851 21.4004 3.12473 21.5 2.86434 21.5C2.60394 21.5 2.34354 21.4004 2.13522 21.2014C1.71859 20.8033 1.71859 20.1813 2.13522 19.7832L10.3116 11.8708L8.93148 10.5522L8.72318 10.7512C8.0722 11.3732 7.18686 11.7215 6.24945 11.7215C5.31203 11.7215 4.4267 11.3732 3.77571 10.7512L0.312472 7.46687C-0.104157 7.06877 -0.104157 6.44668 0.312472 6.04858C0.729101 5.65047 1.38007 5.65047 1.7967 6.04858L5.25994 9.33299C5.52034 9.5818 5.88489 9.73099 6.27548 9.73099C6.66607 9.73099 7.00459 9.5818 7.29102 9.33299L7.52535 9.10896L3.07263 4.85431C2.656 4.45621 2.656 3.83412 3.07263 3.43602C3.48926 3.03791 4.14026 3.03791 4.55689 3.43602L9.00961 7.69078L9.27 7.44197C9.81683 6.91946 9.81683 6.04853 9.27 5.50114L5.80676 2.21685C5.39013 1.81874 5.39013 1.19666 5.80676 0.798554C6.22339 0.40045 6.87439 0.40045 7.29102 0.798554L10.7542 4.08296C12.1343 5.40168 12.1343 7.51664 10.7542 8.83536L10.4938 9.08417L11.8739 10.4028L21.0398 1.52009C21.222 1.32104 21.5085 1.22159 21.7689 1.22159C22.0293 1.22159 22.3157 1.32104 22.498 1.52009C24.8155 3.73455 24.4249 6.84476 21.5085 9.63149L17.9932 12.9905C17.5765 13.3886 16.9255 13.3886 16.5089 12.9905C16.0923 12.5924 16.0923 11.9704 16.5089 11.5723L20.0242 8.21332C22.1334 6.19792 22.0813 4.68005 21.6387 3.75943L13.3061 11.8211L21.4824 19.7832Z" fill="#707C97"/>
</svg>
