<svg width="22" height="18" viewBox="0 0 22 18" fill="none" xmlns="http://www.w3.org/2000/svg">
<path d="M21.0201 2.23902L16.1986 0.065859C16.1757 0.065859 16.1757 0.065851 16.1757 0.0438998C16.1529 0.0219485 16.1072 0.0219539 16.0843 0.0219539C16.0615 0.0219539 16.0158 -5.35918e-06 15.9929 -5.35918e-06C15.9701 -5.35918e-06 15.9244 -5.35918e-06 15.9015 -5.35918e-06C15.8787 -5.35918e-06 15.833 -5.35918e-06 15.8101 -5.35918e-06C15.7873 -5.35918e-06 15.7416 2.67894e-06 15.7187 0.0219539C15.6959 0.0219539 15.6502 0.0438998 15.6273 0.0438998C15.6045 0.0438998 15.6045 0.0439078 15.5816 0.065859L11.08 2.08536L6.57835 0.065859C6.5555 0.065859 6.55551 0.065851 6.53266 0.0438998C6.5098 0.0219485 6.4641 0.0219539 6.44125 0.0219539C6.4184 0.0219539 6.37269 -5.35918e-06 6.34984 -5.35918e-06C6.32699 -5.35918e-06 6.28128 -5.35918e-06 6.25843 -5.35918e-06C6.23558 -5.35918e-06 6.18987 -5.35918e-06 6.16702 -5.35918e-06C6.14417 -5.35918e-06 6.09849 2.67894e-06 6.07564 0.0219539C6.05279 0.0219539 6.00708 0.0438998 5.98423 0.0438998C5.96138 0.0438998 5.96136 0.0439078 5.93851 0.065859L1.02556 2.23902C0.751349 2.37073 0.500006 2.63415 0.500006 2.94146V17.2098C0.500006 17.4732 0.705669 17.7146 0.934179 17.8683C1.07128 17.9561 1.25409 18 1.3912 18C1.50545 18 1.64255 17.978 1.75681 17.9341L6.28127 15.9146L10.7829 17.9341C10.8286 17.9561 10.8743 17.978 10.92 17.978C10.9429 17.978 10.9429 17.978 10.9657 17.978C11.0114 17.978 11.0571 18 11.1257 18C11.1714 18 11.2399 18 11.2856 17.978C11.3085 17.978 11.3085 17.978 11.3313 17.978C11.3771 17.9561 11.4227 17.9561 11.4684 17.9341L15.9701 15.9146L20.4717 17.9341C20.586 17.978 20.7002 18 20.8145 18C20.9744 18 21.0658 17.9561 21.1801 17.8683C21.4086 17.7146 21.5 17.4732 21.5 17.2098V2.94146C21.4315 2.63415 21.3172 2.37073 21.0201 2.23902ZM10.006 16.0024L7.03536 14.5537V1.99756L10.006 3.44634V16.0024ZM2.00816 3.44634L5.20729 1.99756V14.5537L2.00816 16.0024V3.44634ZM11.8341 3.44634L15.0332 1.99756V14.5537L11.8341 16.0024V3.44634ZM19.8319 16.0024L16.6328 14.5537V1.99756L19.8319 3.44634V16.0024Z" fill="#707C97"/>
</svg>
