<svg width="18" height="22" viewBox="0 0 18 22" fill="none" xmlns="http://www.w3.org/2000/svg">
<path d="M16.7233 7.53117C16.6356 6.5968 15.8896 5.87264 14.99 5.87264H13.3883V5.45216C13.3883 2.71912 11.5013 0.5 9.04387 0.5H8.95613C6.52065 0.5 4.61174 2.71912 4.61174 5.45216V5.87264H3.01002C2.11043 5.87264 1.38638 6.5968 1.27668 7.53117L0.00407211 20.4722C-0.0178692 20.7291 0.0479547 21.0095 0.223485 21.1964C0.399015 21.3832 0.618428 21.5 0.881724 21.5H17.1183C17.3596 21.5 17.601 21.3832 17.7765 21.1964C17.952 21.0095 18.0179 20.7291 17.9959 20.4722L16.7233 7.53117ZM6.36705 5.45216C6.36705 3.74693 7.48606 2.36874 8.95613 2.36874H9.04387C10.5139 2.36874 11.633 3.74693 11.633 5.45216V5.87264H6.36705V5.45216ZM1.84715 19.6546L3.01002 7.74138H14.9461L16.109 19.6546H1.84715Z" fill="#707C97"/>
</svg>
