<svg width="22" height="22" viewBox="0 0 22 22" fill="none" xmlns="http://www.w3.org/2000/svg">
<path d="M6.65837 10.119L11.894 15.3596C12.1025 15.5683 12.3805 15.6842 12.6585 15.6842C12.9364 15.6842 13.2145 15.5683 13.4229 15.3596L15.3689 13.4117C15.5774 13.203 15.6932 12.948 15.6932 12.6466C15.6932 12.3683 15.5774 12.09 15.3689 11.8813L10.1333 6.64073C9.92482 6.43204 9.67001 6.31612 9.36885 6.31612C9.09085 6.31612 8.81284 6.43204 8.60435 6.64073L6.65837 8.58859C6.24138 9.00598 6.24138 9.7016 6.65837 10.119ZM9.36885 7.84652L14.1643 12.6466L12.6585 14.1538L7.86304 9.35376L9.36885 7.84652ZM21.3922 13.2031L8.81285 0.611746C8.44219 0.240731 7.86304 0.240731 7.49238 0.611746L5.73172 2.37409C5.47689 2.62916 5.38425 3.02337 5.52325 3.3712C5.77808 3.99729 5.61589 4.69293 5.15256 5.1567C4.68924 5.62046 3.99426 5.75956 3.36877 5.52768C3.02128 5.38855 2.62744 5.48133 2.37261 5.73641L0.611974 7.49869C0.426644 7.6842 0.33399 7.91609 0.33399 8.14798C0.33399 8.37986 0.426644 8.63494 0.611974 8.79726L13.1913 21.3886C13.3766 21.5741 13.6083 21.6668 13.8399 21.6668C14.0716 21.6668 14.3264 21.5741 14.4886 21.3886L16.2492 19.6262C16.5041 19.3712 16.5967 18.977 16.4577 18.6291C16.2029 18.003 16.3651 17.3074 16.8284 16.8436C17.2917 16.3799 17.9867 16.2408 18.6122 16.4726C18.9597 16.6118 19.3535 16.519 19.6083 16.2639L21.369 14.5016C21.7628 14.1306 21.7628 13.5509 21.3922 13.2031ZM18.7048 14.5712C17.5697 14.3393 16.3651 14.6871 15.5311 15.5451C14.6971 16.3799 14.3496 17.5857 14.5581 18.7219L13.8399 19.4407L2.58111 8.17119L3.29926 7.45232C4.43441 7.68421 5.63907 7.33639 6.47306 6.47842C7.30705 5.64364 7.65453 4.43786 7.44603 3.30162L8.16418 2.58276L19.423 13.8523L18.7048 14.5712Z" fill="#707C97"/>
</svg>
