<svg width="20" height="20" viewBox="0 0 20 20" fill="none" xmlns="http://www.w3.org/2000/svg">
<path d="M4.43249 12.0854L3.73631 14.6843L1.19178 14.7381C0.431335 13.3277 0 11.714 0 9.99921C0 8.341 0.403287 6.77728 1.11814 5.40039H1.11869L3.38403 5.81569L4.37639 8.06737C4.16869 8.67287 4.05549 9.32285 4.05549 9.99921C4.05557 10.7333 4.18854 11.4366 4.43249 12.0854Z" fill="#FBBB00"/>
<path d="M19.8243 8.13086C19.9392 8.73577 19.9991 9.36048 19.9991 9.99895C19.9991 10.7149 19.9238 11.4132 19.7804 12.0868C19.2936 14.3791 18.0216 16.3807 16.2595 17.7972L16.2589 17.7966L13.4056 17.651L13.0018 15.1302C14.171 14.4445 15.0848 13.3714 15.5661 12.0868H10.2188V8.13086H15.6441H19.8243Z" fill="#518EF8"/>
<path d="M16.2598 17.7983L16.2603 17.7989C14.5466 19.1763 12.3696 20.0005 9.99978 20.0005C6.19148 20.0005 2.88045 17.872 1.19141 14.7396L4.43212 12.0869C5.27662 14.3407 7.45083 15.9451 9.99978 15.9451C11.0954 15.9451 12.1218 15.6489 13.0026 15.1319L16.2598 17.7983Z" fill="#28B446"/>
<path d="M16.3823 2.30214L13.1426 4.95428C12.2311 4.38452 11.1536 4.05539 9.99919 4.05539C7.39255 4.05539 5.17768 5.73337 4.37548 8.06797L1.11773 5.40099H1.11719C2.78151 2.19226 6.13429 0 9.99919 0C12.4256 0 14.6504 0.86428 16.3823 2.30214Z" fill="#F14336"/>
</svg>
