<svg width="14" height="10" viewBox="0 0 14 10" fill="none" xmlns="http://www.w3.org/2000/svg">
<path fill-rule="evenodd" clip-rule="evenodd" d="M13.4708 4.52862C13.5347 4.59254 13.5829 4.66621 13.6154 4.74484C13.648 4.82344 13.666 4.90963 13.666 5.00002C13.666 5.09042 13.648 5.17661 13.6154 5.25521C13.5829 5.33384 13.5347 5.40751 13.4708 5.47143L9.69952 9.24266C9.43917 9.50301 9.01706 9.50301 8.75671 9.24266C8.49636 8.98232 8.49636 8.56021 8.75671 8.29986L11.3899 5.66669L0.999349 5.66669C0.631159 5.66669 0.332682 5.36821 0.332682 5.00002C0.332682 4.63183 0.631159 4.33336 0.999349 4.33336L11.3899 4.33336L8.75671 1.70019C8.49636 1.43984 8.49636 1.01773 8.75671 0.757383C9.01706 0.497034 9.43917 0.497034 9.69952 0.757383L13.4708 4.52862Z" fill="white"/>
</svg>
