<svg width="28" height="21" viewBox="0 0 28 21" fill="none" xmlns="http://www.w3.org/2000/svg">
<path d="M27.087 6.65018L14.487 0.980168C14.157 0.830168 13.797 0.830168 13.497 0.980168L0.897032 6.65018C0.477032 6.83018 0.207031 7.25018 0.207031 7.70018C0.207031 8.15018 0.507029 8.57017 0.927029 8.78017L2.00703 9.29019V13.4902C2.00703 13.9102 2.33703 14.2402 2.75703 14.2402C3.17703 14.2402 3.50703 13.9102 3.50703 13.4902V10.1002L5.30703 11.0602V16.1602C5.30703 16.3702 5.36703 16.5502 5.48703 16.7302C5.60703 16.9102 8.33703 20.9902 13.857 20.9902C19.527 20.9902 22.137 16.8802 22.257 16.7302C22.347 16.5802 22.437 16.3702 22.437 16.1902V11.2702L27.207 8.84019C27.627 8.63019 27.867 8.21016 27.867 7.76016C27.807 7.25016 27.507 6.86018 27.087 6.65018ZM20.307 15.8302C19.707 16.5502 17.667 18.8902 13.857 18.8902C10.137 18.8902 8.00703 16.5802 7.40703 15.8302V12.1402L13.467 15.2302C13.647 15.3202 13.827 15.3502 14.007 15.3502C14.187 15.3502 14.397 15.3202 14.577 15.2302L20.307 12.3201V15.8302ZM14.007 12.8002L4.16703 7.82018L14.007 3.38017L23.847 7.82018L14.007 12.8002ZM3.50703 15.2902C3.71703 15.5002 3.86703 15.8302 3.86703 16.1302C3.86703 16.4302 3.74703 16.7601 3.50703 16.9701C3.29703 17.1801 2.96703 17.3302 2.66703 17.3302C2.36703 17.3302 2.03703 17.2101 1.82703 16.9701C1.61703 16.7601 1.46703 16.4302 1.46703 16.1302C1.46703 15.8302 1.58703 15.5002 1.82703 15.2902C2.03703 15.0802 2.36703 14.9302 2.66703 14.9302C2.96703 14.9302 3.26703 15.0502 3.50703 15.2902Z" fill="#707C97"/>
</svg>
