<svg width="14" height="10" viewBox="0 0 14 10" fill="none" xmlns="http://www.w3.org/2000/svg">
<path fill-rule="evenodd" clip-rule="evenodd" d="M13.4727 4.52868C13.5366 4.5926 13.5849 4.66627 13.6174 4.7449C13.65 4.8235 13.668 4.90969 13.668 5.00009C13.668 5.09048 13.65 5.17667 13.6174 5.25527C13.5849 5.3339 13.5366 5.40757 13.4727 5.47149L9.70147 9.24273C9.44112 9.50308 9.01901 9.50308 8.75866 9.24273C8.49831 8.98238 8.49831 8.56027 8.75866 8.29992L11.3918 5.66675L1.0013 5.66675C0.633112 5.66675 0.334635 5.36827 0.334635 5.00008C0.334635 4.63189 0.633112 4.33342 1.0013 4.33342L11.3918 4.33342L8.75866 1.70025C8.49831 1.4399 8.49831 1.01779 8.75866 0.757444C9.01901 0.497095 9.44112 0.497095 9.70147 0.757444L13.4727 4.52868Z" fill="white"/>
</svg>
