<svg width="22" height="22" viewBox="0 0 22 22" fill="none" xmlns="http://www.w3.org/2000/svg">
<path d="M19.8553 2.1447C18.8065 1.09589 17.4001 0.5 15.8984 0.5C14.3967 0.5 12.9904 1.07205 11.9415 2.1447L2.14473 11.9415C1.09593 12.9904 0.500006 14.3967 0.500006 15.8984C0.500006 17.4001 1.07209 18.8065 2.14473 19.8553C3.19354 20.9041 4.59989 21.5 6.1016 21.5C7.6033 21.5 9.00965 20.928 10.0585 19.8553L19.8553 10.0585C20.9041 9.00967 21.5 7.60329 21.5 6.10159C21.5 4.59989 20.9279 3.19351 19.8553 2.1447ZM8.72362 18.4966C8.03236 19.1879 7.10272 19.5692 6.12543 19.5692C5.14813 19.5692 4.2185 19.1879 3.52724 18.4966C2.83598 17.8053 2.45459 16.8757 2.45459 15.8984C2.45459 14.9211 2.83598 13.9915 3.52724 13.3003L7.50796 9.31952C8.60444 10.0346 11.2979 11.9653 12.7281 14.5158L8.72362 18.4966ZM18.5204 8.69975L13.9438 13.2764C12.4183 10.8212 9.98696 8.96193 8.69978 8.07998L13.3002 3.47957C13.9915 2.78831 14.9211 2.40692 15.8984 2.40692C16.8757 2.40692 17.8053 2.78831 18.4966 3.47957C19.1879 4.17083 19.5692 5.10043 19.5692 6.07773C19.5692 7.05503 19.2117 8.00849 18.5204 8.69975ZM13.7531 5.91094C14.0868 6.24466 14.0868 6.76906 13.7531 7.10277L12.609 8.24688C12.4421 8.41373 12.2276 8.48524 12.013 8.48524C11.7985 8.48524 11.584 8.41373 11.4171 8.24688C11.0834 7.91317 11.0834 7.38876 11.4171 7.05505L12.5613 5.91094C12.895 5.57723 13.4194 5.57723 13.7531 5.91094ZM15.66 3.98016C15.8269 4.14702 15.9461 4.40917 15.9461 4.64754C15.9461 4.8859 15.8507 5.14817 15.66 5.31503C15.4932 5.48189 15.231 5.601 14.9926 5.601C14.7304 5.601 14.4921 5.50572 14.3252 5.31503C14.1583 5.12434 14.0391 4.8859 14.0391 4.64754C14.0391 4.38533 14.1345 4.14702 14.3252 3.98016C14.5159 3.78947 14.7542 3.69407 14.9926 3.69407C15.2548 3.69407 15.4932 3.8133 15.66 3.98016Z" fill="#707C97"/>
</svg>
