<svg width="317" height="217" viewBox="0 0 317 217" fill="none" xmlns="http://www.w3.org/2000/svg">
<ellipse cx="163" cy="208" rx="48" ry="9" fill="#2A8BF2" fill-opacity="0.1"/>
<g clip-path="url(#clip0)" filter="url(#filter0_d)">
<path d="M121.296 51.4962L172.543 125.864L277.76 101.6L226.513 27.2316L121.296 51.4962Z" fill="white"/>
<path d="M219.017 44.2479C219.211 44.5389 218.9 44.8526 218.357 44.9872L148.354 61.1051C147.81 61.2397 147.19 61.1057 146.958 60.8371C146.764 60.5461 147.075 60.2325 147.618 60.0978L217.66 43.9576C218.242 43.8453 218.824 43.9569 219.017 44.2479Z" fill="#ECECF0"/>
<path d="M195.615 51.7623C195.809 52.0533 195.498 52.367 194.955 52.5017L149.631 62.9625C149.088 63.0972 148.467 62.9632 148.235 62.6946C148.042 62.4036 148.353 62.0899 148.896 61.9552L194.219 51.4944C194.801 51.3821 195.422 51.5161 195.615 51.7623Z" fill="#ECECF0"/>
<path d="M185.562 56.2687C185.755 56.5597 185.444 56.8734 184.901 57.008L150.908 64.8648C150.365 64.9995 149.745 64.8655 149.513 64.5969C149.319 64.3059 149.63 63.9922 150.173 63.8576L184.166 56.0008C184.787 55.866 185.368 55.9777 185.562 56.2687Z" fill="#ECECF0"/>
<path d="M225.326 53.3573C225.519 53.6483 225.208 53.962 224.665 54.0967L154.623 70.2369C154.08 70.3716 153.46 70.2376 153.227 69.969C153.034 69.678 153.345 69.3643 153.888 69.2296L223.93 53.0894C224.551 52.9547 225.132 53.0663 225.326 53.3573Z" fill="#ECECF0"/>
<path d="M201.885 60.8952C202.078 61.1862 201.767 61.4998 201.224 61.6345L155.901 72.0953C155.357 72.23 154.737 72.096 154.505 71.8274C154.311 71.5364 154.622 71.2227 155.165 71.088L200.489 60.6272C201.11 60.4925 201.73 60.6265 201.885 60.8952Z" fill="#ECECF0"/>
<path d="M191.868 65.379C192.062 65.67 191.751 65.9837 191.208 66.1184L157.215 73.9752C156.672 74.1099 156.051 73.9758 155.819 73.7073C155.626 73.4163 155.937 73.1026 156.48 72.9679L190.472 65.1111C191.054 64.9988 191.675 65.088 191.868 65.379Z" fill="#ECECF0"/>
<path d="M232.638 63.9452C232.832 64.2362 232.521 64.5499 231.978 64.6846L161.936 80.8248C161.393 80.9595 160.772 80.8255 160.54 80.5569C160.346 80.2659 160.657 79.9522 161.201 79.8175L231.242 63.6773C231.824 63.565 232.406 63.6766 232.638 63.9452Z" fill="#ECECF0"/>
<path d="M209.197 71.4831C209.391 71.774 209.08 72.0877 208.537 72.2224L163.213 82.6832C162.67 82.8179 162.049 82.6839 161.817 82.4153C161.624 82.1243 161.935 81.8106 162.478 81.6759L207.801 71.2151C208.383 71.1028 209.004 71.1921 209.197 71.4831Z" fill="#ECECF0"/>
<path d="M199.181 75.9669C199.374 76.2579 199.063 76.5716 198.52 76.7063L164.528 84.5631C163.984 84.6977 163.364 84.5637 163.132 84.2952C162.938 84.0042 163.249 83.6905 163.792 83.5558L197.785 75.699C198.328 75.5643 198.949 75.6983 199.181 75.9669Z" fill="#ECECF0"/>
<path d="M248.502 87.0009C248.695 87.2919 248.384 87.6056 247.841 87.7402L177.799 103.88C177.256 104.015 176.635 103.881 176.403 103.613C176.21 103.322 176.521 103.008 177.064 102.873L247.106 86.733C247.688 86.6207 248.347 86.7323 248.502 87.0009Z" fill="#ECECF0"/>
<path d="M225.1 94.5612C225.293 94.8522 224.982 95.1658 224.439 95.3005L179.115 105.761C178.572 105.896 177.952 105.762 177.72 105.493C177.526 105.202 177.837 104.889 178.38 104.754L223.704 94.2932C224.286 94.1362 224.906 94.2702 225.1 94.5612Z" fill="#ECECF0"/>
<path d="M215.046 99.0226C215.24 99.3136 214.929 99.6273 214.385 99.7619L180.393 107.619C179.85 107.753 179.229 107.619 178.997 107.351C178.803 107.06 179.114 106.746 179.658 106.611L213.65 98.7547C214.232 98.6424 214.853 98.7764 215.046 99.0226Z" fill="#ECECF0"/>
<path d="M238.83 72.9891C239.023 73.2801 238.712 73.5938 238.169 73.7285L168.127 89.8687C167.584 90.0034 166.964 89.8694 166.731 89.6008C166.538 89.3098 166.849 88.9961 167.392 88.8615L237.434 72.7212C238.055 72.5865 238.675 72.7205 238.83 72.9891Z" fill="#ECECF0"/>
<path d="M215.387 80.526C215.58 80.817 215.269 81.1307 214.726 81.2654L169.403 91.7262C168.859 91.8608 168.239 91.7268 168.007 91.4582C167.813 91.1672 168.124 90.8536 168.667 90.7189L213.991 80.2581C214.612 80.1234 215.232 80.2574 215.387 80.526Z" fill="#ECECF0"/>
<path d="M219.412 86.3463C219.606 86.6373 219.295 86.951 218.751 87.0857L173.428 97.5465C172.885 97.6811 172.264 97.5471 172.032 97.2786C171.839 96.9876 172.149 96.6739 172.693 96.5392L218.016 86.0784C218.637 85.9437 219.257 86.0777 219.412 86.3463Z" fill="#ECECF0"/>
<path d="M205.372 85.0109C205.566 85.3019 205.255 85.6156 204.712 85.7502L170.719 93.607C170.176 93.7417 169.555 93.6077 169.323 93.3391C169.13 93.0481 169.44 92.7344 169.984 92.5998L203.976 84.743C204.597 84.6082 205.179 84.7199 205.372 85.0109Z" fill="#ECECF0"/>
<path d="M200.597 88.3948C200.79 88.6858 200.479 88.9994 199.936 89.1341L172.074 95.5543C171.531 95.689 170.911 95.5549 170.679 95.2864C170.485 94.9954 170.796 94.6817 171.339 94.547L199.201 88.1268C199.783 88.0146 200.403 88.1038 200.597 88.3948Z" fill="#ECECF0"/>
<path d="M218.384 51.6381C218.345 51.6605 218.306 51.683 218.228 51.683C218.112 51.7055 217.957 51.7056 217.879 51.6608L213.46 50.0958C213.266 50.0287 213.228 49.9168 213.267 49.8048C213.305 49.7824 213.306 49.7376 213.344 49.7152C213.461 49.6479 213.577 49.6255 213.732 49.6702L217.029 50.1386L220.138 46.5539C220.177 46.5315 220.216 46.5091 220.216 46.5091C220.332 46.4419 220.526 46.4194 220.642 46.4417C220.875 46.4863 220.952 46.6206 220.913 46.7326L218.461 51.5485C218.461 51.5933 218.423 51.6157 218.384 51.6381Z" fill="#88BA34"/>
<path d="M213.693 49.9165L217.378 50.4295L220.603 46.688L218.151 51.5039L213.693 49.9165ZM213.112 49.5809C213.035 49.6258 212.957 49.6706 212.918 49.7378C212.762 49.9618 212.878 50.2081 213.227 50.3198L217.647 51.8849C217.879 51.9743 218.112 51.9742 218.345 51.9292C218.461 51.9068 218.539 51.862 218.616 51.8171C218.694 51.7723 218.772 51.6827 218.811 51.6155L221.263 46.7996C221.379 46.6428 221.263 46.4413 221.069 46.3295C220.759 46.1505 220.255 46.1284 219.945 46.3077L219.906 46.3301C219.867 46.3525 219.867 46.3525 219.828 46.3749C219.789 46.3974 219.75 46.4198 219.75 46.4646L216.797 49.87L213.888 49.4461C213.578 49.4015 213.306 49.4689 213.112 49.5809Z" fill="#88BA34"/>
<path d="M247.405 93.7651C247.366 93.7875 247.328 93.8099 247.25 93.81C247.134 93.8324 246.978 93.8325 246.901 93.7878L242.482 92.2228C242.288 92.1557 242.249 92.0438 242.288 91.9318C242.327 91.9094 242.327 91.8646 242.366 91.8421C242.482 91.7749 242.599 91.7524 242.754 91.7971L246.05 92.2655L249.159 88.6809C249.198 88.6585 249.237 88.6361 249.237 88.6361C249.353 88.5688 249.547 88.5463 249.664 88.5686C249.896 88.6133 249.974 88.7476 249.935 88.8596L247.483 93.6755C247.522 93.6978 247.444 93.7427 247.405 93.7651Z" fill="#88BA34"/>
<path d="M242.676 92.021L246.36 92.534L249.586 88.7925L247.134 93.6084L242.676 92.021ZM242.095 91.6854C242.017 91.7303 241.939 91.7751 241.9 91.8423C241.745 92.0663 241.861 92.3126 242.21 92.4243L246.629 93.9893C246.862 94.0788 247.094 94.0786 247.327 94.0337C247.444 94.0113 247.521 93.9664 247.599 93.9216C247.676 93.8768 247.754 93.7872 247.793 93.72L250.245 88.9041C250.362 88.7473 250.246 88.5458 250.052 88.434C249.742 88.255 249.238 88.2329 248.927 88.4122L248.888 88.4346C248.849 88.457 248.849 88.457 248.811 88.4794C248.772 88.5019 248.733 88.5243 248.733 88.5691L245.779 91.9745L242.793 91.5507C242.599 91.5284 242.289 91.5734 242.095 91.6854Z" fill="#88BA34"/>
<path d="M232.352 71.8959C232.314 71.9184 232.275 71.9408 232.197 71.9408C232.081 71.9633 231.926 71.9634 231.848 71.9186L227.429 70.3536C227.235 70.2866 227.196 70.1746 227.235 70.0626C227.274 70.0402 227.274 69.9954 227.313 69.973C227.43 69.9058 227.546 69.8833 227.701 69.928L230.997 70.3964L234.107 66.8117C234.145 66.7893 234.184 66.7669 234.184 66.7669C234.301 66.6997 234.495 66.6772 234.611 66.6995C234.844 66.7441 234.921 66.8785 234.882 66.9905L232.43 71.8063C232.43 71.8511 232.391 71.8735 232.352 71.8959Z" fill="#88BA34"/>
<path d="M227.623 70.1519L231.307 70.6648L234.533 66.9234L232.081 71.7392L227.623 70.1519ZM227.042 69.8163C226.964 69.8611 226.887 69.906 226.848 69.9732C226.692 70.1972 226.808 70.4434 227.157 70.5552L231.576 72.1202C231.809 72.2096 232.042 72.2095 232.274 72.1646C232.391 72.1421 232.468 72.0973 232.546 72.0525C232.624 72.0076 232.701 71.918 232.74 71.8508L235.192 67.0349C235.309 66.8781 235.193 66.6767 234.999 66.5648C234.689 66.3858 234.185 66.3637 233.874 66.5431L233.835 66.5655C233.797 66.5879 233.797 66.5879 233.758 66.6103C233.719 66.6327 233.68 66.6551 233.68 66.6999L230.726 70.1053L227.74 69.6815C227.546 69.6593 227.236 69.7042 227.042 69.8163Z" fill="#88BA34"/>
<path d="M242.401 117.37C244.3 118.466 244.258 120.235 242.395 121.311L148.976 175.241C147.074 176.34 144.01 176.319 142.15 175.245L21.5175 105.604C19.6187 104.508 19.6605 102.739 21.5242 101.663L114.904 47.7552C116.806 46.6569 119.871 46.6776 121.731 47.7514L242.363 117.392L242.401 117.37Z" fill="#DC6150"/>
<path d="M238.178 114.931C239.999 115.983 239.918 117.73 238.055 118.805L144.636 172.736C142.734 173.834 139.747 173.858 137.926 172.807L21.4013 105.537C19.58 104.486 19.6605 102.739 21.5242 101.663L114.904 47.7552C116.806 46.6569 119.793 46.6328 121.614 47.6842L238.139 114.954L238.178 114.931Z" fill="#FD8888"/>
<path d="M119.432 53.1049L30.8281 104.256L139.176 166.805L227.78 115.654L119.432 53.1049Z" fill="white"/>
<path d="M97.506 59.0511C94.716 57.4404 90.1388 57.443 87.3433 59.0569L41.1 85.7531C38.3045 87.367 38.3 90.0093 41.0901 91.6201L50.0028 96.7654L106.419 64.1964L97.506 59.0511Z" fill="#B4B3B3"/>
<path d="M74.859 78.5236C79.2121 76.0106 79.219 71.9401 74.8745 69.432C70.5299 66.924 63.4791 66.9279 59.1261 69.441C54.773 71.954 54.7661 76.0244 59.1106 78.5325C63.4551 81.0406 70.5059 81.0366 74.859 78.5236Z" fill="#B4B3B3"/>
<path d="M66.9917 73.9819C68.3212 73.2144 68.3233 71.9712 66.9964 71.2052C65.6695 70.4392 63.5161 70.4404 62.1866 71.2079C60.8571 71.9755 60.855 73.2186 62.1819 73.9847C63.5088 74.7507 65.6622 74.7495 66.9917 73.9819Z" fill="#EDEFC7"/>
<path d="M100.219 60.6176L43.8027 93.1865L50.0029 96.7659L106.419 64.1969L100.219 60.6176Z" fill="#D2D2D2"/>
<path d="M127.423 75.6053C127.811 75.829 127.81 76.2321 127.383 76.4786L68.2491 110.617C67.822 110.863 67.1238 110.864 66.7363 110.64C66.3488 110.416 66.3494 110.013 66.7765 109.767L125.91 75.6285C126.338 75.382 126.997 75.3592 127.423 75.6053Z" fill="#ECECF0"/>
<path d="M109.286 89.1637C109.673 89.3874 109.672 89.7905 109.245 90.037L70.9229 112.161C70.4958 112.407 69.7976 112.408 69.4101 112.184C69.0226 111.96 69.0233 111.557 69.4504 111.31L107.773 89.1869C108.2 88.9404 108.898 88.94 109.286 89.1637Z" fill="#ECECF0"/>
<path d="M102.525 96.2432C102.912 96.4669 102.912 96.87 102.485 97.1166L73.6749 113.748C73.2478 113.995 72.5496 113.995 72.1621 113.772C71.7745 113.548 71.7752 113.145 72.2023 112.898L100.973 96.2889C101.439 96.0199 102.099 95.9971 102.525 96.2432Z" fill="#ECECF0"/>
<path d="M146.799 86.2977C147.225 86.5438 147.225 86.9469 146.798 87.1934L100.127 114.136C99.7002 114.383 99.002 114.383 98.5757 114.137L97.8395 113.712C97.4132 113.466 97.4139 113.063 97.841 112.816L144.473 85.896C144.9 85.6494 145.598 85.649 146.024 85.8951L146.76 86.3201L146.799 86.2977Z" fill="#ECECF0"/>
<path d="M158.309 92.9423C158.735 93.1883 158.735 93.5914 158.307 93.838L111.637 120.781C111.21 121.027 110.512 121.028 110.086 120.782L109.349 120.357C108.923 120.111 108.924 119.707 109.351 119.461L155.982 92.5405C156.409 92.2939 157.108 92.2935 157.534 92.5396L158.27 92.9647L158.309 92.9423Z" fill="#ECECF0"/>
<path d="M170.051 99.7206C170.477 99.9667 170.477 100.37 170.05 100.616L123.379 127.559C122.952 127.806 122.254 127.806 121.828 127.56L121.091 127.135C120.665 126.889 120.666 126.486 121.093 126.239L167.724 99.3188C168.152 99.0723 168.85 99.0719 169.276 99.3179L170.012 99.743L170.051 99.7206Z" fill="#ECECF0"/>
<path d="M180.979 106.029C181.405 106.275 181.404 106.678 180.977 106.925L134.307 133.868C133.88 134.114 133.182 134.115 132.755 133.869L132.019 133.444C131.593 133.197 131.594 132.794 132.021 132.548L178.652 105.627C179.079 105.381 179.778 105.38 180.204 105.627L180.94 106.052L180.979 106.029Z" fill="#ECECF0"/>
<path d="M89.305 114.3L96.4739 118.438L89.2909 122.585L82.122 118.446L89.305 114.3ZM89.3067 113.269L80.2988 118.47L89.2891 123.66L98.297 118.46L89.3067 113.269Z" fill="#ECECF0"/>
<path d="M100.969 121.033L108.138 125.172L100.955 129.318L93.786 125.18L100.969 121.033ZM100.971 120.003L91.9629 125.203L100.953 130.393L109.961 125.193L100.971 120.003Z" fill="#ECECF0"/>
<path d="M112.633 127.767L119.802 131.906L112.619 136.053L105.45 131.914L112.633 127.767ZM112.596 126.715L103.588 131.915L112.578 137.105L121.586 131.905L112.596 126.715Z" fill="#ECECF0"/>
<path d="M124.414 134.568L131.583 138.707L124.4 142.853L117.231 138.715L124.414 134.568ZM124.416 133.538L115.408 138.738L124.398 143.928L133.406 138.728L124.416 133.538Z" fill="#ECECF0"/>
<path d="M91.7778 119.851C91.7001 119.896 91.5449 119.941 91.4285 119.919L84.4475 119.341C84.2536 119.318 84.0986 119.229 84.0988 119.094C84.0989 119.05 84.1378 118.982 84.2154 118.938C84.2931 118.893 84.3319 118.87 84.4095 118.87L89.1038 118.397L89.6174 112.911C89.6174 112.866 89.6564 112.799 89.734 112.754C89.8117 112.709 89.9281 112.687 90.0056 112.687C90.2384 112.687 90.3934 112.776 90.432 112.888L91.8557 119.627C91.9331 119.717 91.8942 119.784 91.7778 119.851Z" fill="#88BA34"/>
<path d="M90.1218 112.933L91.5455 119.673L84.5644 119.094L89.6079 118.599L90.1218 112.933ZM89.5405 112.598C89.3852 112.687 89.3462 112.799 89.3072 112.911L88.8328 118.196L84.4489 118.624C84.2549 118.647 84.0996 118.692 83.9832 118.759C83.8279 118.848 83.75 118.983 83.7498 119.117C83.7494 119.341 84.0594 119.565 84.4473 119.565L91.4283 120.143C91.6998 120.165 91.9326 120.12 92.1268 120.008C92.3209 119.896 92.3987 119.762 92.3602 119.605L90.9752 112.888C90.9366 112.776 90.898 112.664 90.743 112.575C90.3942 112.418 89.8511 112.418 89.5405 112.598Z" fill="#88BA34"/>
<path d="M102.551 126.072C102.474 126.117 102.319 126.162 102.202 126.139L95.26 125.539C95.0661 125.517 94.9111 125.427 94.9113 125.293C94.9114 125.248 94.9503 125.181 95.0279 125.136C95.1056 125.091 95.1444 125.069 95.222 125.069L99.9163 124.596L100.43 119.109C100.43 119.064 100.469 118.997 100.547 118.952C100.624 118.907 100.741 118.885 100.818 118.885C101.051 118.885 101.206 118.974 101.244 119.086L102.668 125.826C102.707 125.938 102.668 126.005 102.551 126.072Z" fill="#88BA34"/>
<path d="M100.895 119.153L102.319 125.892L95.3376 125.314L100.381 124.819L100.895 119.153ZM100.314 118.817C100.158 118.907 100.081 118.997 100.08 119.131L99.5284 124.416L95.1445 124.844C94.9505 124.867 94.7953 124.911 94.6788 124.979C94.5235 125.068 94.4457 125.203 94.4454 125.337C94.4451 125.561 94.755 125.785 95.1429 125.785L102.124 126.363C102.395 126.385 102.628 126.34 102.822 126.228C103.017 126.116 103.094 125.982 103.056 125.825L101.671 119.108C101.632 118.996 101.594 118.884 101.439 118.794C101.129 118.615 100.624 118.638 100.314 118.817Z" fill="#88BA34"/>
<path d="M112.594 151.459L139.061 166.738L151.951 159.297C151.369 159.633 126.662 158.684 112.594 151.459Z" fill="#DDDDE0"/>
<path d="M141.103 151.107C136.135 152.677 131.751 153.374 127.872 153.555C118.833 153.985 112.98 151.548 110.732 150.385L112.476 151.391C126.544 158.616 151.407 159.61 151.95 159.296C150.67 159.23 149.43 158.827 148.383 158.268C145.864 156.904 143.852 154.218 141.103 151.107Z" fill="#ECECF0"/>
</g>
<defs>
<filter id="filter0_d" x="-11" y="-10" width="347.591" height="217.573" filterUnits="userSpaceOnUse" color-interpolation-filters="sRGB">
<feFlood flood-opacity="0" result="BackgroundImageFix"/>
<feColorMatrix in="SourceAlpha" type="matrix" values="0 0 0 0 0 0 0 0 0 0 0 0 0 0 0 0 0 0 127 0"/>
<feOffset dy="10"/>
<feGaussianBlur stdDeviation="10"/>
<feColorMatrix type="matrix" values="0 0 0 0 0.428594 0 0 0 0 0.662892 0 0 0 0 0.879167 0 0 0 0.2 0"/>
<feBlend mode="normal" in2="BackgroundImageFix" result="effect1_dropShadow"/>
<feBlend mode="normal" in="SourceGraphic" in2="effect1_dropShadow" result="shape"/>
</filter>
<clipPath id="clip0">
<rect width="196.771" height="158.397" fill="white" transform="matrix(0.866044 -0.499967 0.866044 0.499967 9 98.3789)"/>
</clipPath>
</defs>
</svg>
