<svg width="16" height="16" viewBox="0 0 16 16" fill="none" xmlns="http://www.w3.org/2000/svg">
<path fill-rule="evenodd" clip-rule="evenodd" d="M14.4727 7.52819C14.5366 7.59211 14.5849 7.66578 14.6174 7.74441C14.65 7.82301 14.668 7.9092 14.668 7.9996C14.668 8.08999 14.65 8.17618 14.6174 8.25479C14.5849 8.33342 14.5366 8.40708 14.4727 8.471L10.7015 12.2422C10.4411 12.5026 10.019 12.5026 9.75866 12.2422C9.49831 11.9819 9.49831 11.5598 9.75866 11.2994L12.3918 8.66626L2.0013 8.66626C1.63311 8.66626 1.33464 8.36779 1.33464 7.9996C1.33464 7.63141 1.63311 7.33293 2.0013 7.33293L12.3918 7.33293L9.75866 4.69976C9.49831 4.43942 9.49831 4.01731 9.75866 3.75696C10.019 3.49661 10.4411 3.49661 10.7015 3.75696L14.4727 7.52819Z" fill="#F53945"/>
</svg>
