<svg width="50" height="50" viewBox="0 0 50 50" fill="none" xmlns="http://www.w3.org/2000/svg">
<path d="M24.9945 45.014C36.0437 45.014 45.0008 36.0569 45.0008 25.0077C45.0008 13.9586 36.0437 5.00146 24.9945 5.00146C13.9454 5.00146 4.98828 13.9586 4.98828 25.0077C4.98828 36.0569 13.9454 45.014 24.9945 45.014Z" fill="#3A559F"/>
<path d="M23.0403 40.3878C23.056 37.9808 23.0716 35.5738 23.0872 33.1668C23.0872 31.8852 23.056 30.6035 23.1028 29.3219C23.1185 28.6811 22.9622 28.3997 22.2588 28.4622C21.3992 28.5248 20.5239 28.4622 19.6486 28.4779C19.2266 28.4935 19.0234 28.3841 19.0234 27.9152C19.0547 26.6335 19.0391 25.3519 19.0234 24.0702C19.0234 23.6326 19.1797 23.4607 19.6174 23.4607C20.7427 23.4763 21.8525 23.4607 23.0716 23.4607C23.0716 22.7417 23.056 22.0852 23.0716 21.4288C23.1028 20.3816 23.0091 19.3031 23.2279 18.2872C23.7593 15.7239 25.9319 14.0202 28.5577 13.9577C29.7768 13.9264 30.9959 13.9733 32.1994 13.9421C32.6683 13.9264 32.8559 14.0671 32.8403 14.5673C32.809 15.6926 32.809 16.818 32.8403 17.9433C32.8559 18.3966 32.6683 18.5529 32.2307 18.5373C31.4336 18.5216 30.6208 18.5216 29.8237 18.5373C28.714 18.5529 28.1357 19.1312 28.12 20.2409C28.1044 21.1162 28.1357 21.9915 28.1044 22.8511C28.0888 23.3356 28.2763 23.4763 28.7452 23.4763C30.0269 23.445 31.3085 23.4607 32.7465 23.4607C32.5277 25.1643 32.3245 26.7742 32.1057 28.4622C30.7928 28.4622 29.5111 28.4622 28.12 28.4622C28.12 32.4947 28.12 36.4491 28.12 40.4035C26.432 40.3878 24.744 40.3878 23.0403 40.3878Z" fill="#17366D"/>
<path d="M21.052 38.4025C21.0677 35.9955 21.0833 33.5885 21.0989 31.1815C21.0989 29.8998 21.0677 28.6182 21.1146 27.3365C21.1302 26.6957 20.9739 26.4144 20.2705 26.4769C19.4109 26.5394 18.5356 26.4769 17.6604 26.4925C17.2383 26.5081 17.0352 26.3987 17.0352 25.9298C17.0664 24.6482 17.0508 23.3665 17.0352 22.0849C17.0352 21.6472 17.1915 21.4753 17.6291 21.4753C18.7544 21.4909 19.8642 21.4753 21.0833 21.4753C21.0833 20.7563 21.0677 20.0999 21.0833 19.4434C21.1146 18.3962 21.0208 17.3178 21.2396 16.3018C21.771 13.7385 23.9436 12.0349 26.5694 11.9723C27.7885 11.9411 29.0076 11.988 30.2111 11.9567C30.68 11.9411 30.8676 12.0818 30.852 12.5819C30.8207 13.7073 30.8207 14.8326 30.852 15.958C30.8676 16.4112 30.68 16.5675 30.2424 16.5519C29.4453 16.5363 28.6325 16.5363 27.8354 16.5519C26.7257 16.5675 26.1474 17.1458 26.1317 18.2556C26.1161 19.1308 26.1474 20.0061 26.1161 20.8657C26.1005 21.3503 26.288 21.4909 26.7569 21.4909C28.0386 21.4597 29.3202 21.4753 30.7582 21.4753C30.5394 23.179 30.3362 24.7888 30.1174 26.4769C28.8044 26.4769 27.5228 26.4769 26.1317 26.4769C26.1317 30.5094 26.1317 34.4637 26.1317 38.4181C24.4437 38.4025 22.7557 38.4025 21.052 38.4025Z" fill="white"/>
<path d="M8.32842 25.9455C7.81263 25.9455 7.39062 25.5235 7.39062 25.0077C7.39062 19.9124 9.59444 15.0671 13.4394 11.7223C13.8301 11.3785 14.4241 11.4254 14.7679 11.8161C15.1118 12.2068 15.0649 12.8008 14.6742 13.1446C11.2356 16.1299 9.26621 20.4594 9.26621 25.0234C9.26621 25.5235 8.8442 25.9455 8.32842 25.9455Z" fill="#9898F9"/>
<path d="M16.7524 11.4412C16.4242 11.4412 16.1116 11.2693 15.9397 10.9723C15.6896 10.519 15.8459 9.95636 16.2835 9.69065C17.3932 9.06545 18.5655 8.54967 19.769 8.17455C20.2691 8.01825 20.7849 8.29959 20.9412 8.79975C21.0975 9.2999 20.8162 9.81569 20.316 9.97199C19.2376 10.3002 18.1904 10.7535 17.2057 11.3162C17.0806 11.4099 16.9243 11.4412 16.7524 11.4412Z" fill="#9898F9"/>
<path d="M24.9922 50C18.5839 50 12.1913 47.5617 7.31479 42.6852C-2.43826 32.9322 -2.43826 17.0678 7.31479 7.31479C12.035 2.59456 18.3182 0 24.9922 0C31.6661 0 37.9494 2.59456 42.6696 7.33042C43.0291 7.6899 43.0291 8.28384 42.6696 8.65896C42.3101 9.01844 41.7162 9.01844 41.341 8.65896C36.9647 4.28259 31.166 1.89122 24.9766 1.89122C18.8028 1.89122 12.9884 4.29822 8.61207 8.65896C-0.406377 17.6774 -0.406377 32.3539 8.61207 41.3723C17.6305 50.3908 32.307 50.3908 41.3254 41.3723C41.6849 41.0128 42.2788 41.0128 42.654 41.3723C43.0134 41.7318 43.0134 42.3257 42.654 42.7008C37.8087 47.5617 31.4004 50 24.9922 50Z" fill="#3A559F"/>
<path d="M48.5487 30.9316C48.4862 30.9316 48.4237 30.9316 48.3611 30.916C47.861 30.8066 47.5327 30.3065 47.6422 29.8063C47.7828 29.103 47.9079 28.3996 47.986 27.6963C48.0485 27.1805 48.5018 26.821 49.0176 26.8679C49.5334 26.9304 49.9085 27.3993 49.846 27.8995C49.7522 28.6653 49.6272 29.4312 49.4709 30.1814C49.3771 30.6191 48.9863 30.9316 48.5487 30.9316Z" fill="#3A559F"/>
<path d="M49.015 24.289C48.5305 24.289 48.1085 23.9138 48.0772 23.4137C47.9209 21.1005 47.4208 18.8498 46.5924 16.6928C46.2642 15.8332 45.8734 14.9735 45.4358 14.1608C45.1857 13.7075 45.3733 13.1292 45.8265 12.8948C46.2798 12.6447 46.8581 12.8323 47.0926 13.2855C47.5615 14.1608 47.9835 15.083 48.3429 16.0207C49.2339 18.3496 49.7809 20.7879 49.9528 23.2886C49.9841 23.8044 49.5933 24.2577 49.0776 24.289C49.0463 24.289 49.0307 24.289 49.015 24.289Z" fill="#3A559F"/>
</svg>
