<svg width="40" height="40" viewBox="0 0 40 40" fill="none" xmlns="http://www.w3.org/2000/svg">
<path d="M19.9933 35.9988C28.8326 35.9988 35.9983 28.8331 35.9983 19.9938C35.9983 11.1545 28.8326 3.98877 19.9933 3.98877C11.154 3.98877 3.98828 11.1545 3.98828 19.9938C3.98828 28.8331 11.154 35.9988 19.9933 35.9988Z" fill="#0077B5"/>
<path d="M6.6643 20.7436C6.25167 20.7436 5.91406 20.406 5.91406 19.9934C5.91406 15.9171 7.67711 12.0409 10.7531 9.36506C11.0657 9.08998 11.5408 9.12749 11.8159 9.44009C12.091 9.75268 12.0535 10.2278 11.7409 10.5029C8.99002 12.8912 7.41453 16.3548 7.41453 20.0059C7.41453 20.406 7.07693 20.7436 6.6643 20.7436Z" fill="#3AA7F9"/>
<path d="M13.4019 9.15276C13.1394 9.15276 12.8893 9.01522 12.7517 8.77764C12.5517 8.41503 12.6767 7.96489 13.0268 7.75232C13.9146 7.25217 14.8524 6.83954 15.8152 6.53945C16.2153 6.41441 16.6279 6.63948 16.753 7.0396C16.878 7.43973 16.653 7.85236 16.2528 7.97739C15.3901 8.23998 14.5523 8.60259 13.7645 9.05273C13.6645 9.11525 13.5395 9.15276 13.4019 9.15276Z" fill="#3AA7F9"/>
<path d="M19.9937 40C14.8671 40 9.75305 38.0494 5.85183 34.1482C-1.95061 26.3457 -1.95061 13.6543 5.85183 5.85183C13.6543 -1.95061 26.3457 -1.95061 34.1482 5.85183C34.4358 6.13942 34.4358 6.61457 34.1482 6.91466C33.8606 7.20225 33.3854 7.20225 33.0853 6.91466C25.8706 -0.300093 14.1294 -0.300093 6.91466 6.91466C-0.300093 14.1294 -0.300093 25.8706 6.91466 33.0853C14.1294 40.3001 25.8706 40.3001 33.0853 33.0853C33.3729 32.7977 33.8481 32.7977 34.1482 33.0853C34.4358 33.3729 34.4358 33.8481 34.1482 34.1482C30.2469 38.0494 25.1203 40 19.9937 40Z" fill="#0077B5"/>
<path d="M38.8397 24.7325C38.7897 24.7325 38.7397 24.7325 38.6897 24.72C38.2896 24.6325 38.027 24.2324 38.1145 23.8323C38.227 23.2696 38.3271 22.7069 38.3896 22.1442C38.4396 21.7316 38.8022 21.4315 39.2149 21.4815C39.6275 21.5315 39.9276 21.9067 39.8776 22.3068C39.8025 22.9195 39.7025 23.5322 39.5775 24.1323C39.5024 24.4825 39.1899 24.7325 38.8397 24.7325Z" fill="#0077B5"/>
<path d="M39.2144 19.4185C38.8268 19.4185 38.4891 19.1184 38.4641 18.7183C38.3391 16.8677 37.939 15.0671 37.2763 13.3416C37.0137 12.6539 36.7011 11.9661 36.351 11.3159C36.1509 10.9533 36.301 10.4907 36.6636 10.3031C37.0262 10.1031 37.4888 10.2531 37.6764 10.6157C38.0515 11.3159 38.3891 12.0537 38.6767 12.8039C39.3894 14.667 39.8271 16.6176 39.9646 18.6182C39.9896 19.0309 39.677 19.3935 39.2644 19.4185C39.2394 19.4185 39.2269 19.4185 39.2144 19.4185Z" fill="#0077B5"/>
<path d="M23.6055 29.3718C23.6055 29.3593 23.6055 29.3343 23.6055 29.3218H23.618C23.618 29.3343 23.618 29.3593 23.618 29.3718C23.618 29.3718 23.618 29.3718 23.6055 29.3718Z" fill="#0487BA"/>
<path d="M21.7695 27.6584C21.7695 27.6459 21.7695 27.6209 21.7695 27.6084H21.782C21.782 27.6209 21.782 27.6459 21.782 27.6584C21.7946 27.6709 21.782 27.6709 21.7695 27.6584Z" fill="black"/>
<path d="M22.1917 18.543C23.6047 16.8299 25.3427 16.6674 27.2058 17.2426C28.6312 17.6802 29.2814 18.8306 29.4315 20.2185C29.5815 21.6314 29.594 23.0569 29.6315 24.4698C29.6565 25.6077 29.6315 26.7455 29.644 27.8709C29.6565 28.296 29.5315 28.5086 29.0689 28.4836C28.2186 28.4586 27.3808 28.4711 26.5306 28.4836C26.168 28.4836 26.0304 28.346 26.0304 27.9709C26.0429 26.2079 26.0429 24.4448 26.0304 22.6693C26.0304 22.3066 25.9929 21.9565 25.9304 21.5939C25.7678 20.5811 25.2677 20.131 24.3299 20.106C23.3421 20.0809 22.6419 20.5936 22.4418 21.5314C22.3668 21.894 22.3168 22.2816 22.3168 22.6568C22.3042 24.3823 22.2917 26.1203 22.3293 27.8459C22.3418 28.371 22.1542 28.4961 21.6791 28.4836C20.8663 28.4586 20.0535 28.4711 19.2408 28.4836C18.8407 28.4961 18.7031 28.321 18.7031 27.9334C18.7156 24.5448 18.7156 21.1563 18.7031 17.7677C18.7031 17.3051 18.8907 17.18 19.3158 17.1925C20.0535 17.2176 20.7913 17.2301 21.529 17.1925C22.0542 17.1675 22.2542 17.3676 22.1917 17.8803C22.1792 18.0553 22.1917 18.2429 22.1917 18.543Z" fill="#024F84"/>
<path d="M16.6902 22.8571C16.6902 24.5326 16.6777 26.2082 16.7027 27.8837C16.7027 28.3088 16.6027 28.5089 16.14 28.4964C15.3148 28.4714 14.4895 28.4714 13.6517 28.4964C13.2641 28.5089 13.1016 28.3713 13.1016 27.9712C13.1141 24.5702 13.1141 21.1691 13.1016 17.7555C13.1016 17.3804 13.2141 17.1929 13.6267 17.2054C14.452 17.2304 15.2897 17.2304 16.115 17.2054C16.5526 17.1929 16.7152 17.3304 16.7027 17.7805C16.6777 19.4686 16.6902 21.1691 16.6902 22.8571Z" fill="#024F84"/>
<path d="M14.8906 15.8548C13.7903 15.8548 12.8275 14.8795 12.84 13.7792C12.84 12.6788 13.7903 11.7035 14.9031 11.691C16.0035 11.6785 17.0288 12.7163 17.0038 13.8042C16.9663 14.9295 16.0035 15.8673 14.8906 15.8548Z" fill="#024F84"/>
<path d="M20.6566 17.1426C22.0695 15.4295 23.8075 15.267 25.6706 15.8422C27.0961 16.2798 27.7463 17.4302 27.8963 18.8181C28.0464 20.231 28.0589 21.6565 28.0964 23.0694C28.1214 24.2073 28.0964 25.3451 28.1089 26.4705C28.1214 26.8956 27.9964 27.1082 27.5337 27.0832C26.6834 27.0582 25.8457 27.0707 24.9954 27.0832C24.6328 27.0832 24.4953 26.9456 24.4953 26.5705C24.5078 24.8075 24.5078 23.0444 24.4953 21.2689C24.4953 20.9063 24.4578 20.5561 24.3952 20.1935C24.2327 19.1807 23.7325 18.7306 22.7947 18.7056C21.8069 18.6806 21.1067 19.1932 20.9066 20.131C20.8316 20.4936 20.7816 20.8812 20.7816 21.2564C20.7691 22.9819 20.7566 24.7199 20.7941 26.4455C20.8066 26.9706 20.6191 27.0957 20.1439 27.0832C19.3311 27.0582 18.5184 27.0707 17.7056 27.0832C17.3055 27.0957 17.168 26.9206 17.168 26.533C17.1805 23.1444 17.1805 19.7559 17.168 16.3673C17.168 15.9047 17.3555 15.7797 17.7807 15.7922C18.5184 15.8172 19.2561 15.8297 19.9939 15.7922C20.519 15.7671 20.7191 15.9672 20.6566 16.4799C20.6316 16.6549 20.6566 16.83 20.6566 17.1426Z" fill="white"/>
<path d="M15.155 21.4567C15.155 23.1323 15.1425 24.8078 15.1675 26.4833C15.1675 26.9084 15.0675 27.1085 14.6049 27.096C13.7796 27.071 12.9543 27.071 12.1166 27.096C11.729 27.1085 11.5664 26.971 11.5664 26.5708C11.5789 23.1698 11.5789 19.7687 11.5664 16.3551C11.5664 15.98 11.6789 15.7925 12.0916 15.805C12.9168 15.83 13.7546 15.83 14.5798 15.805C15.0175 15.7925 15.18 15.93 15.1675 16.3801C15.1425 18.0682 15.155 19.7562 15.155 21.4567Z" fill="white"/>
<path d="M13.3555 14.4544C12.2551 14.4544 11.2923 13.4791 11.3048 12.3788C11.3048 11.2784 12.2551 10.3031 13.368 10.2906C14.4683 10.2781 15.4936 11.316 15.4686 12.4038C15.4186 13.5166 14.4558 14.4544 13.3555 14.4544Z" fill="white"/>
</svg>
