<svg width="40" height="40" viewBox="0 0 40 40" fill="none" xmlns="http://www.w3.org/2000/svg">
<path d="M19.9933 36.0115C28.8326 36.0115 35.9983 28.8458 35.9983 20.0065C35.9983 11.1671 28.8326 4.00146 19.9933 4.00146C11.154 4.00146 3.98828 11.1671 3.98828 20.0065C3.98828 28.8458 11.154 36.0115 19.9933 36.0115Z" fill="url(#paint0_linear)"/>
<g opacity="0.78">
<g opacity="0.78">
<g opacity="0.78">
<g opacity="0.78">
<path opacity="0.78" d="M6.6643 20.7563C6.25167 20.7563 5.91406 20.4187 5.91406 20.0061C5.91406 15.9298 7.67711 12.0536 10.7531 9.37776C11.0657 9.10267 11.5408 9.14018 11.8159 9.45278C12.091 9.76538 12.0535 10.2405 11.7409 10.5156C8.99002 12.9039 7.41453 16.3674 7.41453 20.0186C7.41453 20.4187 7.07693 20.7563 6.6643 20.7563Z" fill="#D780FF"/>
</g>
</g>
<g opacity="0.78">
<g opacity="0.78">
<g opacity="0.78">
<path opacity="0.78" d="M13.4019 9.15276C13.1394 9.15276 12.8893 9.01522 12.7517 8.77764C12.5517 8.41503 12.6767 7.96489 13.0268 7.75232C13.9146 7.25217 14.8524 6.83954 15.8152 6.53945C16.2153 6.41441 16.6279 6.63948 16.753 7.0396C16.878 7.43973 16.653 7.85236 16.2528 7.97739C15.3901 8.23998 14.5523 8.60259 13.7645 9.05273C13.6645 9.12775 13.5395 9.15276 13.4019 9.15276Z" fill="#D780FF"/>
</g>
</g>
</g>
</g>
</g>
<path d="M19.9937 40C14.8671 40 9.75305 38.0494 5.85183 34.1482C-1.95061 26.3457 -1.95061 13.6543 5.85183 5.85183C9.62801 2.07565 14.6546 0 19.9937 0C25.3329 0 30.3595 2.07565 34.1357 5.86433C34.4233 6.15192 34.4233 6.62707 34.1357 6.92716C33.8481 7.21475 33.3729 7.21475 33.0728 6.92716C29.5717 3.42607 24.9328 1.51297 19.9812 1.51297C15.0422 1.51297 10.3907 3.43857 6.88965 6.92716C-0.325102 14.1419 -0.325102 25.8831 6.88965 33.0978C14.1044 40.3126 25.8456 40.3126 33.0603 33.0978C33.3479 32.8103 33.8231 32.8103 34.1232 33.0978C34.4107 33.3854 34.4107 33.8606 34.1232 34.1607C30.2469 38.0494 25.1203 40 19.9937 40Z" fill="url(#paint1_linear)"/>
<path d="M38.8397 24.7452C38.7897 24.7452 38.7397 24.7452 38.6897 24.7327C38.2896 24.6452 38.027 24.2451 38.1145 23.845C38.227 23.2823 38.3271 22.7196 38.3896 22.1569C38.4396 21.7443 38.8147 21.4442 39.2149 21.4942C39.6275 21.5442 39.9276 21.9194 39.8776 22.3195C39.8025 22.9322 39.7025 23.5449 39.5775 24.1451C39.5024 24.4952 39.1899 24.7452 38.8397 24.7452Z" fill="url(#paint2_linear)"/>
<path d="M39.2144 19.4312C38.8268 19.4312 38.4891 19.1311 38.4641 18.731C38.3391 16.8804 37.939 15.0798 37.2763 13.3543C37.0137 12.6666 36.7011 11.9788 36.351 11.3286C36.1509 10.966 36.301 10.5034 36.6636 10.3158C37.0262 10.1158 37.4888 10.2658 37.6764 10.6284C38.0515 11.3286 38.3891 12.0664 38.6767 12.8166C39.3894 14.6797 39.8271 16.6303 39.9646 18.6309C39.9896 19.0436 39.677 19.4062 39.2644 19.4312C39.2394 19.4312 39.2269 19.4312 39.2144 19.4312Z" fill="url(#paint3_linear)"/>
<g opacity="0.71">
<g opacity="0.71">
<path opacity="0.71" d="M20.7912 30.4341C19.8909 30.4341 19.0031 30.4466 18.1028 30.4341C17.2276 30.4216 16.3648 30.4216 15.502 30.2091C13.4264 29.7089 12.1635 28.4085 11.7008 26.3453C11.5383 25.6451 11.5133 24.9324 11.5133 24.2322C11.5008 22.1815 11.5008 20.1309 11.5133 18.0678C11.5133 17.2175 11.5633 16.3797 11.8009 15.5545C12.3761 13.6539 13.6515 12.5035 15.5771 12.0659C16.2773 11.9033 16.99 11.8783 17.6902 11.8658C19.7534 11.8533 21.804 11.8533 23.8671 11.8658C24.6799 11.8658 25.5052 11.9158 26.3054 12.1409C28.2685 12.6911 29.4439 13.9915 29.8815 15.9671C30.0691 16.7924 30.0691 17.6426 30.0816 18.4804C30.0941 20.2559 30.0941 22.0315 30.0816 23.8071C30.0816 24.6823 30.0691 25.5576 29.869 26.4204C29.3689 28.5085 28.056 29.7839 25.9678 30.2466C25.1551 30.4216 24.3298 30.4341 23.5045 30.4466C22.6043 30.4466 21.6915 30.4341 20.7912 30.4341ZM20.7912 13.4913C20.7912 13.5038 20.7912 13.5038 20.7912 13.5163C20.041 13.5163 19.2907 13.5038 18.553 13.5163C17.7027 13.5288 16.84 13.5163 15.9897 13.6789C14.6518 13.9415 13.764 14.7167 13.3889 16.0546C13.2263 16.6423 13.1888 17.255 13.1888 17.8677C13.1763 19.7808 13.1638 21.6939 13.1638 23.607C13.1638 24.3947 13.1638 25.1825 13.3264 25.9577C13.6014 27.3081 14.3767 28.1959 15.7146 28.5585C16.2898 28.7211 16.8775 28.7586 17.4526 28.7586C19.6658 28.7711 21.8915 28.7711 24.1047 28.7586C24.5924 28.7586 25.08 28.7086 25.5552 28.6211C26.9181 28.371 27.8059 27.5832 28.181 26.2328C28.3435 25.6326 28.3811 25.0324 28.3811 24.4197C28.3936 22.2441 28.3936 20.0809 28.3811 17.9052C28.3811 17.3425 28.3435 16.7924 28.2185 16.2422C28.0059 15.3044 27.5183 14.5542 26.6555 14.079C26.0428 13.7414 25.3551 13.6039 24.6674 13.5914C23.392 13.5288 22.0916 13.5163 20.7912 13.4913Z" fill="url(#paint4_linear)"/>
<path opacity="0.71" d="M20.7916 16.3799C23.4549 16.3924 25.5805 18.5306 25.568 21.1814C25.5555 23.8198 23.4049 25.9454 20.754 25.9329C18.1157 25.9204 16.0026 23.7572 16.0276 21.1064C16.0401 18.4931 18.1907 16.3674 20.7916 16.3799ZM20.7916 18.043C19.0785 18.043 17.6906 19.4309 17.6781 21.1439C17.6656 22.857 19.066 24.2574 20.7916 24.2574C22.5171 24.2574 23.905 22.8695 23.905 21.1439C23.905 19.4309 22.5171 18.043 20.7916 18.043Z" fill="url(#paint5_linear)"/>
<path opacity="0.71" d="M25.7677 17.305C25.155 17.3175 24.6548 16.8299 24.6298 16.2172C24.6048 15.617 25.105 15.0918 25.7176 15.0793C26.3303 15.0668 26.8555 15.5545 26.868 16.1672C26.8805 16.7799 26.3929 17.2925 25.7677 17.305Z" fill="url(#paint6_linear)"/>
</g>
</g>
<path d="M19.9435 29.584C19.0432 29.584 18.1555 29.5965 17.2552 29.584C16.3799 29.5715 15.5171 29.5715 14.6544 29.359C12.5787 28.8588 11.3158 27.5584 10.8532 25.4952C10.6906 24.795 10.6656 24.0823 10.6656 23.3821C10.6531 21.3314 10.6531 19.2808 10.6656 17.2177C10.6656 16.3674 10.7156 15.5296 10.9532 14.7044C11.5284 12.8038 12.8038 11.6534 14.7294 11.2158C15.4296 11.0532 16.1423 11.0282 16.8426 11.0157C18.9057 11.0032 20.9563 11.0032 23.0195 11.0157C23.8322 11.0157 24.6575 11.0657 25.4578 11.2908C27.4209 11.841 28.5962 13.1414 29.0339 15.117C29.2214 15.9423 29.2214 16.7925 29.2339 17.6303C29.2464 19.4058 29.2464 21.1814 29.2339 22.957C29.2339 23.8322 29.2214 24.7075 29.0214 25.5703C28.5212 27.6584 27.2083 28.9338 25.1201 29.3965C24.3074 29.5715 23.4821 29.584 22.6569 29.5965C21.7566 29.5965 20.8438 29.584 19.9435 29.584ZM19.956 12.6412C19.956 12.6537 19.956 12.6537 19.956 12.6662C19.2058 12.6662 18.4556 12.6537 17.7178 12.6662C16.8676 12.6787 16.0048 12.6662 15.1545 12.8288C13.8166 13.0914 12.9288 13.8666 12.5537 15.2045C12.3912 15.7922 12.3537 16.4049 12.3537 17.0176C12.3412 18.9307 12.3286 20.8438 12.3286 22.7569C12.3286 23.5446 12.3286 24.3324 12.4912 25.1076C12.7663 26.4581 13.5415 27.3458 14.8794 27.7084C15.4546 27.871 16.0423 27.9085 16.6175 27.9085C18.8307 27.921 21.0564 27.921 23.2696 27.9085C23.7572 27.9085 24.2449 27.8585 24.72 27.771C26.0829 27.5209 26.9707 26.7331 27.3458 25.3827C27.5084 24.7825 27.5459 24.1823 27.5459 23.5696C27.5584 21.394 27.5584 19.2308 27.5459 17.0551C27.5459 16.4924 27.5084 15.9423 27.3834 15.3921C27.1708 14.4543 26.6831 13.7041 25.8204 13.2289C25.2077 12.8913 24.52 12.7538 23.8322 12.7413C22.5443 12.6912 21.2439 12.6662 19.956 12.6412Z" fill="white"/>
<path d="M19.9439 15.5298C22.6072 15.5423 24.7329 17.6805 24.7204 20.3313C24.7079 22.9697 22.5572 25.0953 19.9064 25.0828C17.2681 25.0703 15.1549 22.9071 15.1799 20.2563C15.1924 17.643 17.3431 15.5173 19.9439 15.5298ZM19.9564 17.1929C18.2434 17.1929 16.8554 18.5808 16.8429 20.2938C16.8304 22.0069 18.2309 23.4073 19.9564 23.4073C21.6819 23.4073 23.0699 22.0194 23.0699 20.2938C23.0574 18.5808 21.6694 17.1929 19.9564 17.1929Z" fill="white"/>
<path d="M24.92 16.4549C24.3073 16.4675 23.8072 15.9798 23.7821 15.3671C23.7571 14.7669 24.2573 14.2417 24.87 14.2292C25.4827 14.2167 26.0078 14.7044 26.0203 15.3171C26.0328 15.9298 25.5452 16.4424 24.92 16.4549Z" fill="white"/>
<defs>
<linearGradient id="paint0_linear" x1="6.47285" y1="5.15585" x2="33.9242" y2="35.301" gradientUnits="userSpaceOnUse">
<stop stop-color="#6541C4"/>
<stop offset="0.0484538" stop-color="#6E3FC0"/>
<stop offset="0.1269" stop-color="#8638B6"/>
<stop offset="0.2255" stop-color="#AD2EA6"/>
<stop offset="0.3393" stop-color="#E22090"/>
<stop offset="0.37" stop-color="#F21C89"/>
<stop offset="0.4161" stop-color="#F32169"/>
<stop offset="0.4767" stop-color="#F32645"/>
<stop offset="0.5336" stop-color="#F42A2B"/>
<stop offset="0.5847" stop-color="#F42C1B"/>
<stop offset="0.6252" stop-color="#F42D16"/>
<stop offset="0.6606" stop-color="#F43616"/>
<stop offset="0.7179" stop-color="#F44E17"/>
<stop offset="0.79" stop-color="#F57519"/>
<stop offset="0.8736" stop-color="#F5AB1B"/>
<stop offset="0.9572" stop-color="#F6E81E"/>
</linearGradient>
<linearGradient id="paint1_linear" x1="6.46544" y1="5.16279" x2="33.9166" y2="35.3078" gradientUnits="userSpaceOnUse">
<stop stop-color="#6541C4"/>
<stop offset="0.4599" stop-color="#F21C89"/>
<stop offset="0.571" stop-color="#F33455"/>
<stop offset="0.6821" stop-color="#F44A28"/>
<stop offset="0.738" stop-color="#F45216"/>
<stop offset="0.7645" stop-color="#F46617"/>
<stop offset="0.8442" stop-color="#F59E1A"/>
<stop offset="0.9129" stop-color="#F6C61C"/>
<stop offset="0.9671" stop-color="#F6DF1E"/>
<stop offset="1" stop-color="#F6E81E"/>
</linearGradient>
<linearGradient id="paint2_linear" x1="15.3098" y1="-2.88892" x2="42.7612" y2="27.2564" gradientUnits="userSpaceOnUse">
<stop stop-color="#6541C4"/>
<stop offset="0.4599" stop-color="#F21C89"/>
<stop offset="0.571" stop-color="#F33455"/>
<stop offset="0.6821" stop-color="#F44A28"/>
<stop offset="0.738" stop-color="#F45216"/>
<stop offset="0.7645" stop-color="#F46617"/>
<stop offset="0.8442" stop-color="#F59E1A"/>
<stop offset="0.9129" stop-color="#F6C61C"/>
<stop offset="0.9671" stop-color="#F6DF1E"/>
<stop offset="1" stop-color="#F6E81E"/>
</linearGradient>
<linearGradient id="paint3_linear" x1="18.9532" y1="-6.20706" x2="46.4046" y2="23.9382" gradientUnits="userSpaceOnUse">
<stop stop-color="#6541C4"/>
<stop offset="0.4599" stop-color="#F21C89"/>
<stop offset="0.571" stop-color="#F33455"/>
<stop offset="0.6821" stop-color="#F44A28"/>
<stop offset="0.738" stop-color="#F45216"/>
<stop offset="0.7645" stop-color="#F46617"/>
<stop offset="0.8442" stop-color="#F59E1A"/>
<stop offset="0.9129" stop-color="#F6C61C"/>
<stop offset="0.9671" stop-color="#F6DF1E"/>
<stop offset="1" stop-color="#F6E81E"/>
</linearGradient>
<linearGradient id="paint4_linear" x1="11.5064" y1="21.1531" x2="30.0867" y2="21.1531" gradientUnits="userSpaceOnUse">
<stop offset="0.022417" stop-color="#4F1C89"/>
<stop offset="0.1212" stop-color="#691777"/>
<stop offset="0.3162" stop-color="#970F57"/>
<stop offset="0.503" stop-color="#BB083E"/>
<stop offset="0.6771" stop-color="#D5042D"/>
<stop offset="0.8335" stop-color="#E50122"/>
<stop offset="0.9572" stop-color="#EA001E"/>
</linearGradient>
<linearGradient id="paint5_linear" x1="16.0212" y1="21.1515" x2="25.5685" y2="21.1515" gradientUnits="userSpaceOnUse">
<stop offset="0.022417" stop-color="#4F1C89"/>
<stop offset="0.1212" stop-color="#691777"/>
<stop offset="0.3162" stop-color="#970F57"/>
<stop offset="0.503" stop-color="#BB083E"/>
<stop offset="0.6771" stop-color="#D5042D"/>
<stop offset="0.8335" stop-color="#E50122"/>
<stop offset="0.9572" stop-color="#EA001E"/>
</linearGradient>
<linearGradient id="paint6_linear" x1="24.6358" y1="16.1909" x2="26.8686" y2="16.1909" gradientUnits="userSpaceOnUse">
<stop offset="0.022417" stop-color="#4F1C89"/>
<stop offset="0.1212" stop-color="#691777"/>
<stop offset="0.3162" stop-color="#970F57"/>
<stop offset="0.503" stop-color="#BB083E"/>
<stop offset="0.6771" stop-color="#D5042D"/>
<stop offset="0.8335" stop-color="#E50122"/>
<stop offset="0.9572" stop-color="#EA001E"/>
</linearGradient>
</defs>
</svg>
