<svg width="50" height="50" viewBox="0 0 50 50" fill="none" xmlns="http://www.w3.org/2000/svg">
<path d="M25.0063 44.9984C36.0554 44.9984 45.0125 36.0412 45.0125 24.9921C45.0125 13.9429 36.0554 4.98584 25.0063 4.98584C13.9571 4.98584 5 13.9429 5 24.9921C5 36.0412 13.9571 44.9984 25.0063 44.9984Z" fill="#EA2F2A"/>
<path d="M8.32842 25.9299C7.81263 25.9299 7.39062 25.5079 7.39062 24.9921C7.39062 19.8968 9.59444 15.0515 13.4394 11.7067C13.8301 11.3628 14.4241 11.4097 14.7679 11.8005C15.1118 12.1912 15.0649 12.7852 14.6742 13.129C11.2356 16.1143 9.26621 20.4438 9.26621 25.0077C9.26621 25.5079 8.8442 25.9299 8.32842 25.9299Z" fill="#FF6464"/>
<path d="M16.768 11.4412C16.4398 11.4412 16.1272 11.2693 15.9553 10.9723C15.7052 10.519 15.8615 9.95636 16.2991 9.69065C17.4089 9.06545 18.5811 8.54967 19.7846 8.17455C20.2848 8.01825 20.8005 8.29959 20.9568 8.79975C21.1131 9.2999 20.8318 9.81569 20.3317 9.97199C19.2532 10.3002 18.206 10.7535 17.2213 11.3162C17.0806 11.3943 16.9243 11.4412 16.768 11.4412Z" fill="#FF6464"/>
<path d="M25.0078 50C18.5996 50 12.2069 47.5617 7.33042 42.6852C2.59456 37.9494 0 31.6818 0 24.9922C0 18.3026 2.59456 12.035 7.33042 7.31479C17.0835 -2.43826 32.9478 -2.43826 42.7009 7.31479C43.0603 7.67427 43.0603 8.26821 42.7009 8.64333C42.3414 9.00281 41.7474 9.00281 41.3723 8.64333C32.3539 -0.375117 17.6774 -0.375117 8.65896 8.64333C4.28259 13.0197 1.89122 18.8184 1.89122 25.0078C1.89122 31.1973 4.29822 36.9959 8.65896 41.3723C17.6774 50.3908 32.3539 50.3908 41.3723 41.3723C41.7318 41.0128 42.3257 41.0128 42.7009 41.3723C43.0603 41.7318 43.0603 42.3257 42.7009 42.7008C37.8087 47.5617 31.4161 50 25.0078 50Z" fill="#EA2F2A"/>
<path d="M48.5604 30.9158C48.4979 30.9158 48.4354 30.9158 48.3729 30.9002C47.8727 30.7907 47.5445 30.2906 47.6539 29.7904C47.7945 29.0871 47.9196 28.3838 47.9977 27.6804C48.0603 27.1646 48.5292 26.7895 49.0293 26.852C49.5451 26.9145 49.9202 27.3834 49.8577 27.8836C49.7639 28.6495 49.6389 29.4153 49.4826 30.1656C49.3888 30.6032 48.9981 30.9158 48.5604 30.9158Z" fill="#EA2F2A"/>
<path d="M49.0189 24.2733C48.5344 24.2733 48.1124 23.8982 48.0812 23.3981C47.9249 21.0848 47.4247 18.8341 46.5963 16.6772C46.2681 15.8176 45.8773 14.9579 45.4397 14.1452C45.1896 13.6919 45.3772 13.1136 45.8304 12.8791C46.2837 12.6291 46.862 12.8166 47.0965 13.2699C47.5654 14.1452 47.9874 15.0673 48.3469 16.0051C49.2378 18.334 49.7848 20.7722 49.9567 23.273C49.988 23.7888 49.5973 24.2421 49.0815 24.2733C49.0658 24.2733 49.0502 24.2733 49.0189 24.2733Z" fill="#EA2F2A"/>
<path d="M25.9298 27.821C24.3668 27.821 22.8664 27.821 21.3034 27.821C21.3034 26.6801 21.3034 25.5703 21.3034 24.3981C24.0855 24.3981 26.8833 24.3981 29.681 24.3981C30.8064 27.6179 28.5244 32.635 25.2421 34.1511C20.9908 36.1205 15.8642 34.5419 13.551 30.525C11.2534 26.555 12.3162 21.5691 16.0517 18.8495C19.3809 16.4269 24.6482 16.7395 27.1021 19.5216C26.2581 20.2874 25.4141 21.0377 24.4763 21.8817C23.3665 21.0377 21.9286 20.5219 20.2562 20.8657C19.1465 21.0846 18.2087 21.6003 17.4428 22.4131C15.8798 24.0542 15.5672 26.6175 16.6613 28.6494C17.7554 30.6657 19.9436 31.6973 22.2724 31.3065C24.3043 30.9627 25.6172 29.7279 25.9298 27.821Z" fill="#AA0F0F"/>
<path d="M37.2634 29.8063C36.4662 29.8063 35.8254 29.8063 35.0908 29.8063C35.0908 28.7904 35.0908 27.7901 35.0908 26.7272C33.9967 26.7272 32.9964 26.7272 31.9336 26.7272C31.9336 25.977 31.9336 25.2893 31.9336 24.5234C32.9339 24.5234 33.9342 24.5234 35.0283 24.5234C35.0283 23.4762 35.0283 22.5072 35.0283 21.4756C35.7785 21.4756 36.435 21.4756 37.1852 21.4756C37.1852 22.429 37.1852 23.4137 37.1852 24.4609C38.248 24.4609 39.2171 24.4609 40.2643 24.4609C40.2643 25.2111 40.2643 25.8988 40.2643 26.6647C39.3109 26.6647 38.3418 26.6647 37.2634 26.6647C37.2634 27.7275 37.2634 28.7279 37.2634 29.8063Z" fill="#AA0F0F"/>
<path d="M24.7697 26.6648C23.2067 26.6648 21.7062 26.6648 20.1432 26.6648C20.1432 25.5238 20.1432 24.4141 20.1432 23.2418C22.9254 23.2418 25.7231 23.2418 28.5209 23.2418C29.6462 26.4616 27.3642 31.4788 24.082 32.9949C19.8306 34.9642 14.704 33.3856 12.3908 29.3687C10.0932 25.3988 11.156 20.4128 14.8916 17.6932C18.2208 15.2706 23.488 15.5832 25.9419 18.3653C25.0979 19.1312 24.2539 19.8814 23.3161 20.7254C22.2064 19.8814 20.7684 19.3656 19.096 19.7095C17.9863 19.9283 17.0485 20.4441 16.2826 21.2568C14.7197 22.898 14.4071 25.4613 15.5012 27.4932C16.5952 29.5094 18.7834 30.541 21.1123 30.1502C23.1598 29.822 24.4727 28.5873 24.7697 26.6648Z" fill="white"/>
<path d="M36.1032 28.6652C35.3061 28.6652 34.6653 28.6652 33.9307 28.6652C33.9307 27.6493 33.9307 26.6489 33.9307 25.5861C32.8366 25.5861 31.8363 25.5861 30.7734 25.5861C30.7734 24.8359 30.7734 24.1482 30.7734 23.3823C31.7738 23.3823 32.7741 23.3823 33.8682 23.3823C33.8682 22.3351 33.8682 21.366 33.8682 20.3345C34.6184 20.3345 35.2748 20.3345 36.0251 20.3345C36.0251 21.2879 36.0251 22.2726 36.0251 23.3198C37.0879 23.3198 38.057 23.3198 39.1042 23.3198C39.1042 24.07 39.1042 24.7577 39.1042 25.5236C38.1507 25.5236 37.1817 25.5236 36.1032 25.5236C36.1032 26.5864 36.1032 27.5867 36.1032 28.6652Z" fill="white"/>
</svg>
