<svg width="927" height="223" viewBox="0 0 927 223" fill="none" xmlns="http://www.w3.org/2000/svg">
<g opacity="0.3">
<rect width="197" height="123.658" rx="10" fill="#E6EAF2"/>
<rect x="17.9092" y="63.1084" width="161.182" height="14.4978" fill="#DBE0E9"/>
<rect x="17.9092" y="98.9263" width="58.8442" height="9.38095" fill="#DBE0E9"/>
<rect x="17.9092" y="12.792" width="58.8442" height="9.38095" fill="#DBE0E9"/>
<rect x="17.9092" y="33.2598" width="25.5844" height="18.7619" rx="2" fill="#DBE0E9"/>
<rect x="140.714" y="89.5454" width="38.3766" height="18.7619" rx="2" fill="#DBE0E9"/>
<circle cx="171.842" cy="20.0409" r="7.24892" fill="#DBE0E9"/>
</g>
<g opacity="0.6">
<rect x="172" y="48" width="197" height="123.658" rx="10" fill="#E6EAF2"/>
<rect x="189.909" y="111.108" width="161.182" height="14.4978" fill="#DBE0E9"/>
<rect x="189.909" y="146.926" width="58.8442" height="9.38095" fill="#DBE0E9"/>
<rect x="189.909" y="60.792" width="58.8442" height="9.38095" fill="#DBE0E9"/>
<rect x="189.909" y="81.2598" width="25.5844" height="18.7619" rx="2" fill="#DBE0E9"/>
<rect x="312.714" y="137.545" width="38.3766" height="18.7619" rx="2" fill="#DBE0E9"/>
<circle cx="343.842" cy="68.0409" r="7.24892" fill="#DBE0E9"/>
</g>
<rect x="348" y="77.3291" width="231" height="145" rx="10" fill="#E6EAF2"/>
<rect x="369" y="151.329" width="189" height="17" fill="#DBE0E9"/>
<rect x="369" y="193.329" width="69" height="11" fill="#DBE0E9"/>
<rect x="369" y="92.3291" width="69" height="11" fill="#DBE0E9"/>
<rect x="369" y="116.329" width="30" height="22" rx="2" fill="#DBE0E9"/>
<rect x="513" y="182.329" width="45" height="22" rx="2" fill="#DBE0E9"/>
<circle cx="549.5" cy="100.829" r="8.5" fill="#DBE0E9"/>
<g opacity="0.6">
<rect x="558" y="48" width="197" height="123.658" rx="10" fill="#E6EAF2"/>
<rect x="575.909" y="111.108" width="161.182" height="14.4978" fill="#DBE0E9"/>
<rect x="575.909" y="146.926" width="58.8442" height="9.38095" fill="#DBE0E9"/>
<rect x="575.909" y="60.792" width="58.8442" height="9.38095" fill="#DBE0E9"/>
<rect x="575.909" y="81.2598" width="25.5844" height="18.7619" rx="2" fill="#DBE0E9"/>
<rect x="698.714" y="137.545" width="38.3766" height="18.7619" rx="2" fill="#DBE0E9"/>
<circle cx="729.842" cy="68.0409" r="7.24892" fill="#DBE0E9"/>
</g>
<g opacity="0.3">
<rect x="730" width="197" height="123.658" rx="10" fill="#E6EAF2"/>
<rect x="747.909" y="63.1084" width="161.182" height="14.4978" fill="#DBE0E9"/>
<rect x="747.909" y="98.9263" width="58.8442" height="9.38095" fill="#DBE0E9"/>
<rect x="747.909" y="12.792" width="58.8442" height="9.38095" fill="#DBE0E9"/>
<rect x="747.909" y="33.2598" width="25.5844" height="18.7619" rx="2" fill="#DBE0E9"/>
<rect x="870.714" y="89.5454" width="38.3766" height="18.7619" rx="2" fill="#DBE0E9"/>
<circle cx="901.842" cy="20.0409" r="7.24892" fill="#DBE0E9"/>
</g>
</svg>
