<svg width="24" height="24" viewBox="0 0 24 24" fill="none" xmlns="http://www.w3.org/2000/svg">
<path d="M7.11494 11.0087L13.005 16.9044C13.2396 17.1391 13.5523 17.2696 13.865 17.2696C14.1778 17.2696 14.4905 17.1391 14.7251 16.9044L16.9143 14.713C17.1489 14.4782 17.2792 14.1913 17.2792 13.8522C17.2792 13.5392 17.1489 13.2261 16.9143 12.9913L11.0243 7.09564C10.7897 6.86086 10.503 6.73045 10.1642 6.73045C9.85148 6.73045 9.53872 6.86086 9.30416 7.09564L7.11494 9.28698C6.64582 9.75655 6.64582 10.5391 7.11494 11.0087ZM10.1642 8.45215L15.5591 13.8522L13.865 15.5479L8.47019 10.1478L10.1642 8.45215ZM23.6905 14.4783L9.53872 0.313031C9.12173 -0.104361 8.47019 -0.104361 8.0532 0.313031L6.07245 2.29566C5.78577 2.58262 5.68155 3.02611 5.83792 3.41742C6.1246 4.12176 5.94214 4.90436 5.4209 5.4261C4.89966 5.94784 4.11781 6.10432 3.41413 5.84345C3.0232 5.68693 2.58013 5.79132 2.29345 6.07827L0.312739 8.06084C0.104242 8.26954 6.36281e-06 8.53042 6.36281e-06 8.79129C6.36281e-06 9.05216 0.104242 9.33913 0.312739 9.52174L14.4645 23.687C14.673 23.8957 14.9336 24 15.1942 24C15.4548 24 15.7415 23.8957 15.9239 23.687L17.9046 21.7043C18.1913 21.4174 18.2956 20.9739 18.1392 20.5826C17.8525 19.8782 18.035 19.0956 18.5562 18.5739C19.0774 18.0522 19.8593 17.8957 20.563 18.1565C20.9539 18.3131 21.397 18.2087 21.6837 17.9217L23.6644 15.9392C24.1074 15.5218 24.1074 14.8696 23.6905 14.4783ZM20.6672 16.0174C19.3902 15.7565 18.035 16.1479 17.0967 17.1131C16.1585 18.0522 15.7676 19.4087 16.0021 20.687L15.1942 21.4956L2.52802 8.8174L3.33593 8.00868C4.61298 8.26955 5.96823 7.87826 6.90646 6.91304C7.8447 5.97391 8.23561 4.6174 8.00105 3.33914L8.80897 2.53042L21.4752 15.2087L20.6672 16.0174Z" fill="#707C97"/>
</svg>
