<svg width="20" height="20" viewBox="0 0 20 20" fill="none" xmlns="http://www.w3.org/2000/svg">
<path fill-rule="evenodd" clip-rule="evenodd" d="M0.0996094 19.0001C0.0996094 18.503 0.502553 18.1001 0.999609 18.1001H15.0621C15.5592 18.1001 15.9621 18.503 15.9621 19.0001C15.9621 19.4972 15.5592 19.9001 15.0621 19.9001H0.999609C0.502553 19.9001 0.0996094 19.4972 0.0996094 19.0001Z" fill="#707C97"/>
<path fill-rule="evenodd" clip-rule="evenodd" d="M6.24961 4.7126C5.08981 4.7126 4.14961 5.6528 4.14961 6.8126V18.4376H2.34961V6.8126C2.34961 4.65869 4.0957 2.9126 6.24961 2.9126H9.24961C11.4035 2.9126 13.1496 4.65869 13.1496 6.8126V18.4376H11.3496V6.8126C11.3496 5.6528 10.4094 4.7126 9.24961 4.7126H6.24961Z" fill="#707C97"/>
<path fill-rule="evenodd" clip-rule="evenodd" d="M16.7496 0.100098C18.4893 0.100098 19.8996 1.5104 19.8996 3.2501V4.9376C19.8996 5.43465 19.4967 5.8376 18.9996 5.8376C18.5026 5.8376 18.0996 5.43465 18.0996 4.9376V3.2501C18.0996 2.50451 17.4952 1.9001 16.7496 1.9001V0.100098ZM18.9996 6.8501C19.4967 6.8501 19.8996 7.25304 19.8996 7.7501V10.2813C19.8996 11.8657 18.6152 13.1501 17.0309 13.1501H16.7496C15.3206 13.1501 14.1621 11.9916 14.1621 10.5626C14.1621 10.1277 13.8095 9.7751 13.3746 9.7751H3.24961C2.75255 9.7751 2.34961 9.37215 2.34961 8.8751C2.34961 8.37804 2.75255 7.9751 3.24961 7.9751H13.3746C14.8036 7.9751 15.9621 9.13356 15.9621 10.5626C15.9621 10.9975 16.3147 11.3501 16.7496 11.3501H17.0309C17.6211 11.3501 18.0996 10.8716 18.0996 10.2813V7.7501C18.0996 7.25304 18.5026 6.8501 18.9996 6.8501Z" fill="#707C97"/>
</svg>
