<svg width="22" height="22" viewBox="0 0 22 22" fill="none" xmlns="http://www.w3.org/2000/svg">
<path d="M9.65175 13.267C9.65175 12.8136 9.28659 12.4318 8.85297 12.4318H5.88607C5.45244 12.4318 5.08729 12.8136 5.08729 13.267V16.3693C5.08729 16.8227 5.45244 17.2045 5.88607 17.2045H8.85297C9.28659 17.2045 9.65175 16.8227 9.65175 16.3693V13.267ZM6.68485 14.1023H8.05419V15.5341H6.68485V14.1023ZM21.2683 6.08407L19.2371 3.93634V1.45455C19.2371 0.929545 18.8263 0.5 18.3014 0.5H3.71795C3.21586 0.5 2.78224 0.929545 2.78224 1.45455V3.93634L0.751045 6.08407C0.591289 6.25111 0.500006 6.51368 0.500006 6.75232V9.18634C0.500006 9.71134 0.910807 10.0693 1.4129 10.0693H20.5836C21.0857 10.0693 21.4965 9.7352 21.4965 9.18634V6.75232C21.5194 6.48982 21.4281 6.25111 21.2683 6.08407ZM17.4113 2.40909V3.60227H4.63084V2.40909H17.4113ZM19.6936 8.13636H2.34861V7.13404L4.22004 5.27273H17.8221L19.6936 7.13404V8.13636ZM20.15 11.9784V20.5455C20.15 21.0705 19.7392 21.5 19.2371 21.5H16.1105C15.6084 21.5 15.1976 21.1182 15.1976 20.5932V15.5341H13.0751V20.5455C13.0751 21.0705 12.6415 21.5 12.1394 21.5H2.80505C2.30296 21.5 1.86934 21.0705 1.86934 20.5455V11.9784C1.86934 11.4534 2.28015 11.0239 2.78224 11.0239C3.28433 11.0239 3.69513 11.4534 3.69513 11.9784V19.5909H11.2265V14.4841C11.2265 13.9591 11.6145 13.625 12.1166 13.625H16.0648C16.5669 13.625 16.9092 13.9591 16.9092 14.4841V19.5909H18.2786V11.9784C18.2786 11.4534 18.6894 11.0239 19.1915 11.0239C19.6936 11.0239 20.15 11.4534 20.15 11.9784Z" fill="#707C97"/>
</svg>
