<svg width="22" height="17" viewBox="0 0 22 17" fill="none" xmlns="http://www.w3.org/2000/svg">
<path d="M21.4543 4.20223L19.012 11.9266C18.8293 12.4751 18.35 12.8407 17.7794 12.8407H8.35217C7.80435 12.8407 7.27935 12.4979 7.09674 11.9951L3.51305 2.32828H1.41304C0.91087 2.32828 0.5 1.91692 0.5 1.41415C0.5 0.91138 0.91087 0.500022 1.41304 0.500022H4.12935C4.51739 0.500022 4.85979 0.751396 4.99674 1.11705L8.71739 10.9896H17.3913L19.3315 4.81925H8.58043C8.07826 4.81925 7.66739 4.40789 7.66739 3.90512C7.66739 3.40235 8.07826 2.991 8.58043 2.991H20.587C20.8837 2.991 21.1576 3.15096 21.3174 3.37949C21.5 3.60802 21.5457 3.92799 21.4543 4.20223ZM8.80869 14.0291C8.42065 14.0291 8.03261 14.189 7.75869 14.4633C7.48478 14.7375 7.325 15.1261 7.325 15.5146C7.325 15.9031 7.48478 16.2915 7.75869 16.5658C8.03261 16.84 8.42065 17 8.80869 17C9.19674 17 9.58478 16.84 9.8587 16.5658C10.1326 16.2915 10.2924 15.9031 10.2924 15.5146C10.2924 15.1261 10.1326 14.7375 9.8587 14.4633C9.58478 14.189 9.19674 14.0291 8.80869 14.0291ZM17.0033 14.0291C16.6152 14.0291 16.2272 14.189 15.9533 14.4633C15.6794 14.7375 15.5196 15.1261 15.5196 15.5146C15.5196 15.9031 15.6794 16.2915 15.9533 16.5658C16.2272 16.84 16.6152 17 17.0033 17C17.3913 17 17.7794 16.84 18.0533 16.5658C18.3272 16.2915 18.487 15.9031 18.487 15.5146C18.487 15.1261 18.3272 14.7375 18.0533 14.4633C17.7794 14.189 17.3913 14.0291 17.0033 14.0291Z" fill="#707C97"/>
</svg>
